<svg xmlns="http://www.w3.org/2000/svg" viewBox="0 0 144.38 101.11"><defs><style>.cls-1{fill:#231815;}</style></defs><g id="图层_2" data-name="图层 2"><g id="图层_1-2" data-name="图层 1"><path class="cls-1" d="M6.22,60.79h15a0,0,0,0,1,0,0V83.27a7.49,7.49,0,0,1-7.49,7.49h0a7.49,7.49,0,0,1-7.49-7.49V60.79a0,0,0,0,1,0,0Z"/><path class="cls-1" d="M22.29,14h15a0,0,0,0,1,0,0V47.08a7.49,7.49,0,0,1-7.49,7.49h0a7.49,7.49,0,0,1-7.49-7.49V14A0,0,0,0,1,22.29,14Z" transform="translate(59.56 68.57) rotate(180)"/><path class="cls-1" d="M55.71,25.9h15a0,0,0,0,1,0,0V47.08a7.49,7.49,0,0,1-7.49,7.49h0a7.49,7.49,0,0,1-7.49-7.49V25.9a0,0,0,0,1,0,0Z" transform="translate(126.41 80.48) rotate(-180)"/><path class="cls-1" d="M88.38,0h15a0,0,0,0,1,0,0V47.08a7.49,7.49,0,0,1-7.49,7.49h0a7.49,7.49,0,0,1-7.49-7.49V0A0,0,0,0,1,88.38,0Z" transform="translate(191.75 54.57) rotate(-180)"/><path class="cls-1" d="M121.9,34.29h15a0,0,0,0,1,0,0V47.08a7.49,7.49,0,0,1-7.49,7.49h0a7.49,7.49,0,0,1-7.49-7.49V34.29a0,0,0,0,1,0,0Z" transform="translate(258.79 88.86) rotate(-180)"/><path class="cls-1" d="M72.19,60.79h15a0,0,0,0,1,0,0V93.62a7.49,7.49,0,0,1-7.49,7.49h0a7.49,7.49,0,0,1-7.49-7.49V60.79A0,0,0,0,1,72.19,60.79Z"/><path class="cls-1" d="M39,60.79H54a0,0,0,0,1,0,0V69a7.49,7.49,0,0,1-7.49,7.49h0A7.49,7.49,0,0,1,39,69V60.79a0,0,0,0,1,0,0Z"/><path class="cls-1" d="M105.11,60.79h15a0,0,0,0,1,0,0V77.68a7.49,7.49,0,0,1-7.49,7.49h0a7.49,7.49,0,0,1-7.49-7.49V60.79A0,0,0,0,1,105.11,60.79Z"/><rect class="cls-1" y="54.57" width="144.38" height="6.22" rx="3.11"/></g></g></svg>