<svg xmlns="http://www.w3.org/2000/svg" viewBox="0 0 1235.7 789.62"><defs><style>.cls-1,.cls-38,.cls-4{fill:none;stroke:#000;stroke-miterlimit:10;}.cls-1{stroke-width:0.15px;}.cls-2{font-size:11px;font-family:STXihei;}.cls-3{font-size:10px;}.cls-5{fill:#f4a0b7;stroke:#f4a0b7;stroke-miterlimit:10;stroke-width:0.5px;}.cls-6{fill:#f47997;stroke:#f47997;stroke-miterlimit:10;stroke-width:0.5px;}.cls-7{fill:#f7b8c4;stroke:#f7b8c4;stroke-miterlimit:10;stroke-width:0.5px;}.cls-8{fill:#fa90a7;stroke:#fa90a7;stroke-miterlimit:10;stroke-width:0.5px;}.cls-9{fill:#ed446f;stroke:#ed446f;stroke-miterlimit:10;stroke-width:0.5px;}.cls-10{fill:#e30f47;stroke:#e30f47;stroke-miterlimit:10;stroke-width:0.5px;}.cls-11{fill:#e30033;stroke:#e30033;stroke-miterlimit:10;stroke-width:0.5px;}.cls-12{fill:#bc143c;stroke:#bc143c;stroke-miterlimit:10;stroke-width:0.5px;}.cls-13{fill:#97243e;stroke:#97243e;stroke-miterlimit:10;stroke-width:0.5px;}.cls-14{fill:#c8092f;stroke:#c8092f;stroke-miterlimit:10;stroke-width:0.5px;}.cls-15{fill:#a81a2f;stroke:#a81a2f;stroke-miterlimit:10;stroke-width:0.5px;}.cls-16{fill:#f6dc4e;stroke:#f6dc4e;stroke-miterlimit:10;stroke-width:0.5px;}.cls-17{fill:#f7da42;stroke:#f7da42;stroke-miterlimit:10;stroke-width:0.5px;}.cls-18{fill:#f5e255;stroke:#f5e255;stroke-miterlimit:10;stroke-width:0.5px;}.cls-19{fill:#f8dd22;stroke:#f8dd22;stroke-miterlimit:10;stroke-width:0.5px;}.cls-20{fill:#f8d841;stroke:#f8d841;stroke-miterlimit:10;stroke-width:0.5px;}.cls-21{fill:#ea9bb0;}.cls-22{fill:#e5758e;}.cls-23{fill:#f0b4bf;}.cls-24{fill:#ea8aa0;}.cls-25{fill:#dc456a;}.cls-26{fill:#d31d45;}.cls-27{fill:#e45874;}.cls-28{fill:#d31233;}.cls-29{fill:#b01a3a;}.cls-30{fill:#8f243c;}.cls-31{fill:#ba182f;}.cls-32{fill:#9e1e2e;}.cls-33{fill:#ecd453;}.cls-34{fill:#ecd248;}.cls-35{fill:#ead959;}.cls-36{fill:#edd431;}.cls-37{fill:#edd048;}.cls-38{stroke-width:0.25px;}</style></defs><g id="图层_2" data-name="图层 2"><g id="图层_1-2" data-name="图层 1"><line class="cls-1" x1="576.19" y1="423.18" x2="974.28" y2="655.45"/><line class="cls-1" x1="707.67" y1="203.83" x2="712.65" y2="612.5"/><line class="cls-1" x1="799.13" y1="486.23" x2="799.13" y2="747.97"/><path d="M4.71,6.29v9.28l-1,.44c0-.93.07-1.77.07-2.49V6.22A20.84,20.84,0,0,1,1,9.55L.77,9.42A21.12,21.12,0,0,0,3.13,5.71,28.58,28.58,0,0,0,5.06,1l1.48.83L6,2.13C5.23,3.62,4.64,4.71,4.22,5.39l1,.51Zm10.69.19V8.21c0,.55,0,1.09.07,1.6l-1,.32V9.42H11.67a8.69,8.69,0,0,1-.77,3.46,9.3,9.3,0,0,0,2.81,1.34,13.77,13.77,0,0,0,3.38.58v.25a1.49,1.49,0,0,0-1.34.84,13,13,0,0,1-5.27-2.37A8.12,8.12,0,0,1,8.23,15a21.69,21.69,0,0,1-3,1.09l-.14-.26A15.78,15.78,0,0,0,8,14.48a6.22,6.22,0,0,0,1.82-1.54A14.45,14.45,0,0,1,8,10.19l.21-.13a14,14,0,0,0,2,2.24,8.93,8.93,0,0,0,.56-2.88H8.09v.32l-1,.39c.05-.68.07-1.44.07-2.27s0-1.64-.07-2.4l1,.51h2.74V4.11H8.37a7.41,7.41,0,0,0-1.69.19l-.63-.57h4.78v-.9c0-.42,0-1-.07-1.79l1.47.58-.49.45V3.73h3.17L15.75,3,17,4.11H11.74V6h2.6l.5-.58,1.05.77ZM8.09,6.35V9h2.67c0-1.24.07-2.13.07-2.69Zm3.65,0c0,.6,0,1.5-.07,2.69h2.81V6.35Z" transform="translate(0 -0.91)"/><path d="M29.46,14.16a21.86,21.86,0,0,0,2.32.09c.33,0,.49-.3.49-.86V10.13H27.56c0,2.73,0,4.35.07,4.86l-1.05.45c0-2.43.07-4.2.07-5.31H22a10,10,0,0,1-3,5.82l-.21-.13a12.39,12.39,0,0,0,1.83-4,25.1,25.1,0,0,0,.49-5.63c0-2.39,0-4-.07-4.73l1.06.64H32.2l.5-.71,1.12.77-.56.51v11.2a1.88,1.88,0,0,1-1.55,2.05q-.13-1.1-2.25-1.41ZM22.15,6.35c0,1.79-.1,2.92-.14,3.39h4.64V6.35Zm0-3.9V6h4.5V2.45Zm5.41,0V6h4.71V2.45Zm0,3.9V9.74h4.71V6.35Z" transform="translate(0 -0.91)"/><path d="M36.77,4.37h14l1-1L53.3,4.75H44.65a27.63,27.63,0,0,1-.35,2.82h4.57l.7-.64,1.13,1L50,8.27q-.7,4.94-1,5.82a2.08,2.08,0,0,1-.88,1.25,6,6,0,0,1-1.65.61c-.19-.68-1-1.28-2.32-1.79l.07-.26a17.2,17.2,0,0,0,2.49.55,1.33,1.33,0,0,0,.92-.23,3.28,3.28,0,0,0,.59-1.63c.19-.92.43-2.46.71-4.64H44.23a10.76,10.76,0,0,1-6.89,7.94l-.14-.26q6.31-3.27,6.32-10.88H39.09a7.32,7.32,0,0,0-1.68.19Zm6.75-3.14a5.25,5.25,0,0,1,2.15,1.09A1.4,1.4,0,0,1,46,3a1,1,0,0,1-.28.6c-.18.24-.3.35-.35.35s-.37-.23-.56-.7a5.47,5.47,0,0,0-1.41-1.85Z" transform="translate(0 -0.91)"/><path d="M54.91,5.2c1.64.77,2.47,1.4,2.47,1.89a1.1,1.1,0,0,1-.39,1c-.26.17-.48,0-.67-.64a7.46,7.46,0,0,0-1.55-2.05Zm5.77-1.41q-2.74,6.78-3,7.59a6.26,6.26,0,0,0-.21,1.95,13.32,13.32,0,0,0,.11,1.6c0,.17-.12.25-.36.25a2.38,2.38,0,0,1-.7-.13.54.54,0,0,1-.42-.57,3.48,3.48,0,0,1,.21-1,3.53,3.53,0,0,0,.21-1,.84.84,0,0,0-.32-.71,3.88,3.88,0,0,0-1.37-.51V11a11,11,0,0,0,1.59.1c.21,0,.44-.21.7-.58s1.35-2.63,3.27-6.81Zm-4.15-2.3c1.31.6,2,1.05,2.15,1.34a2.23,2.23,0,0,1,.17.64.82.82,0,0,1-.24.58c-.17.17-.3.25-.39.25s-.28-.21-.42-.63a7.72,7.72,0,0,0-1.41-2Zm8.16,3.07c0-1.83,0-3-.07-3.65l1.68.77-.7.64V4.56h2.74l.78-.7,1.12,1.08H65.6V8.4h3.73l.84-.77,1.2,1.15H64.76l1.12.71a3.35,3.35,0,0,0-1.33,1.21,33.62,33.62,0,0,1-3.24,3.39l7.39-.44a29.5,29.5,0,0,0-2-2.24l.14-.2,2,1.35a8.11,8.11,0,0,1,1.2,1,1.36,1.36,0,0,1,.45.86,1.26,1.26,0,0,1-.28.77c-.19.26-.3.39-.35.39s-.26-.13-.35-.39A10.6,10.6,0,0,0,68.91,14a53,53,0,0,0-6,.83,6.05,6.05,0,0,0-2.32.77l-.7-1.48c.6,0,1.41-.64,2.42-1.92a13.42,13.42,0,0,0,2.08-3.39H61.8a6.79,6.79,0,0,0-1.68.2l-.64-.58h5.21V4.94H63.14a6.93,6.93,0,0,0-1.69.2l-.63-.58Z" transform="translate(0 -0.91)"/><path d="M87.91,3.38V8h5.87V3.38h1.59v11H93.78V9.24H87.91v5.17H86.35v-11Z" transform="translate(0 -0.91)"/><path d="M105.91,10.39a4.06,4.06,0,0,1-4.33,4.2,3.94,3.94,0,0,1-4.18-4.07,4.06,4.06,0,0,1,4.32-4.21A3.92,3.92,0,0,1,105.91,10.39ZM99,10.47a2.67,2.67,0,1,0,5.29,0c0-1.35-.73-3-2.61-3S99,9,99,10.47Z" transform="translate(0 -0.91)"/><path d="M108.41,6.49l1.16,4c.25.88.48,1.7.64,2.52h.06c.2-.8.48-1.65.77-2.51l1.43-4h1.33l1.35,4c.32,1,.57,1.79.77,2.59H116a20.75,20.75,0,0,1,.66-2.57l1.25-4h1.56l-2.81,7.92H115.2l-1.33-3.78A22.28,22.28,0,0,1,113.1,8h0a23.68,23.68,0,0,1-.79,2.62l-1.41,3.76h-1.44l-2.63-7.92Z" transform="translate(0 -0.91)"/><path d="M126.76,4.21V6.49H129v1.1h-2.27v4.27c0,1,.3,1.54,1.18,1.54a3.72,3.72,0,0,0,.92-.1l.08,1.08a4.14,4.14,0,0,1-1.41.2,2.29,2.29,0,0,1-1.71-.61,2.74,2.74,0,0,1-.61-2.06V7.59h-1.35V6.49h1.35V4.59Z" transform="translate(0 -0.91)"/><path d="M138.58,10.39a4.06,4.06,0,0,1-4.34,4.2,3.94,3.94,0,0,1-4.17-4.07,4.06,4.06,0,0,1,4.32-4.21A3.92,3.92,0,0,1,138.58,10.39Zm-6.91.08a2.67,2.67,0,1,0,5.29,0c0-1.35-.73-3-2.61-3S131.67,9,131.67,10.47Z" transform="translate(0 -0.91)"/><path d="M151.69,12.25c0,.82,0,1.54.07,2.16h-1.41l-.08-1.29h0a3.34,3.34,0,0,1-2.88,1.47c-1.37,0-3-.68-3-3.47V6.49h1.59v4.39c0,1.5.5,2.52,1.94,2.52A2.29,2.29,0,0,0,150,12.09a2,2,0,0,0,.14-.74V6.49h1.59Z" transform="translate(0 -0.91)"/><path d="M154.1,12.94a4.42,4.42,0,0,0,2.09.57c1.15,0,1.69-.52,1.69-1.18s-.45-1.06-1.62-1.45c-1.57-.51-2.31-1.3-2.31-2.25,0-1.27,1.14-2.32,3-2.32a4.69,4.69,0,0,1,2.14.49l-.39,1a3.66,3.66,0,0,0-1.79-.46c-.93,0-1.45.49-1.45,1.08s.52.95,1.65,1.34c1.51.53,2.29,1.22,2.29,2.39,0,1.4-1.19,2.38-3.26,2.38A5.35,5.35,0,0,1,153.7,14Z" transform="translate(0 -0.91)"/><path d="M162.32,10.71a2.68,2.68,0,0,0,3,2.75,6.48,6.48,0,0,0,2.42-.4l.27,1a7.7,7.7,0,0,1-2.9.49c-2.69,0-4.29-1.61-4.29-4a4,4,0,0,1,4.09-4.27A3.47,3.47,0,0,1,168.5,10a6.67,6.67,0,0,1-.05.67Zm4.65-1a2.12,2.12,0,0,0-2.2-2.34,2.5,2.5,0,0,0-2.43,2.34Z" transform="translate(0 -0.91)"/><text class="cls-2" transform="translate(0 28.2)">规则：<tspan class="cls-3" x="33" y="0">点击带有颜色的圆形</tspan><tspan class="cls-3"><tspan x="0" y="13">会出现颜色的色号，情绪的强度，梦中记忆清晰度，梦中情绪状态</tspan></tspan></text><path class="cls-4" d="M251,620.45C183.15,484.14,239.67,319.17,377.21,252a281.63,281.63,0,0,1,42.84-16.76" transform="translate(0 -0.91)"/><line class="cls-5" x1="251.4" y1="619.31" x2="500.57" y2="512.67"/><line class="cls-5" x1="240.56" y1="596.68" x2="500.57" y2="512.68"/><line class="cls-6" x1="233.79" y1="576.61" x2="500.57" y2="512.68"/><line class="cls-7" x1="228.33" y1="554.85" x2="500.57" y2="512.68"/><line class="cls-8" x1="224.58" y1="532.24" x2="500.57" y2="512.68"/><line class="cls-9" x1="222.19" y1="499.41" x2="501.21" y2="512.89"/><line class="cls-10" x1="224.53" y1="465.32" x2="501.21" y2="512.89"/><line class="cls-11" x1="231.19" y1="429.13" x2="501.21" y2="512.89"/><line class="cls-12" x1="243.87" y1="392.13" x2="501.21" y2="512.89"/><line class="cls-13" x1="260.84" y1="357.27" x2="501.21" y2="512.89"/><line class="cls-14" x1="282.08" y1="326.7" x2="501.21" y2="512.89"/><line class="cls-15" x1="304.15" y1="302.11" x2="501.21" y2="512.89"/><line class="cls-16" x1="324.46" y1="284.74" x2="501.22" y2="512.89"/><line class="cls-17" x1="348.21" y1="267.83" x2="501.21" y2="512.89"/><line class="cls-18" x1="370.65" y1="254.74" x2="501.21" y2="512.89"/><line class="cls-19" x1="387.04" y1="246.73" x2="501.21" y2="512.89"/><line class="cls-20" x1="404.71" y1="239.16" x2="501.21" y2="512.89"/><path d="M197.83,644.67l-.6-2.13-.86.37-.12-.27.9-.38-.48-1.73-.92.4-.12-.27.94-.41-.53-1.93.3-.13.53,1.94,1.58-.68-.52-1.94.3-.12.53,1.93.84-.36.11.27-.86.37.48,1.72.89-.38.11.27-.93.4.62,2.13-.3.13-.61-2.13-1.59.68.61,2.13Zm-.39-2.54,1.6-.68-.49-1.72-1.59.68Z" transform="translate(0 -0.91)"/><path d="M200.26,638.72l-.1-.24.66-.33,1.49-.64.12.28Zm2.49,3.85-2.4-5.5a2.07,2.07,0,0,1-.18-.77,1,1,0,0,1,.21-.59,1.45,1.45,0,0,1,.55-.4,1.79,1.79,0,0,1,.35-.1,2.73,2.73,0,0,1,.4-.05v.3a1.75,1.75,0,0,0-.65.12.75.75,0,0,0-.49.54,1.39,1.39,0,0,0,.15.85l2.37,5.46Z" transform="translate(0 -0.91)"/><path d="M206.83,641a2.7,2.7,0,0,1-1.15.24,2,2,0,0,1-1-.27,1.46,1.46,0,0,1-.63-.71,1.41,1.41,0,0,1-.11-.83,2.3,2.3,0,0,1,.26-.79,3.21,3.21,0,0,1,.44-.65v0a2.66,2.66,0,0,1-.89-.26,1.29,1.29,0,0,1-.64-.68,1.37,1.37,0,0,1-.1-.84,1.49,1.49,0,0,1,.38-.75,2.16,2.16,0,0,1,.76-.55,2.42,2.42,0,0,1,1-.2,1.6,1.6,0,0,1,.83.29,1.74,1.74,0,0,1,.54.7,1.39,1.39,0,0,1,.12.7,2.5,2.5,0,0,1-.15.68,3.12,3.12,0,0,1-.23.54v0a4.46,4.46,0,0,1,.7.12,2,2,0,0,1,.64.29,1.39,1.39,0,0,1,.46.61,1.37,1.37,0,0,1,.09.87,1.83,1.83,0,0,1-.44.85A2.56,2.56,0,0,1,206.83,641Zm-.88-3.37a3,3,0,0,0,.38-1,1.57,1.57,0,0,0-.09-.86,1.4,1.4,0,0,0-.44-.55,1.31,1.31,0,0,0-.68-.26,1.87,1.87,0,0,0-.84.15,1.52,1.52,0,0,0-.81.74,1.16,1.16,0,0,0,0,1,1.14,1.14,0,0,0,.59.61,2.28,2.28,0,0,0,.89.17C205.28,637.6,205.61,637.59,206,637.58Zm.76,3.09a2.07,2.07,0,0,0,.78-.53,1.44,1.44,0,0,0,.36-.69,1.16,1.16,0,0,0-.08-.71,1.1,1.1,0,0,0-.45-.54,1.73,1.73,0,0,0-.66-.24,5,5,0,0,0-.8,0L205,638a3.37,3.37,0,0,0-.6,1,1.41,1.41,0,0,0,0,1,1.22,1.22,0,0,0,.51.59,1.67,1.67,0,0,0,.82.22A2.27,2.27,0,0,0,206.71,640.67Z" transform="translate(0 -0.91)"/><path d="M211.25,639.06a2.16,2.16,0,0,1-.76.18,1.36,1.36,0,0,1-.69-.17,1.2,1.2,0,0,1-.49-.6,1.3,1.3,0,0,1,.28-1.45,8.12,8.12,0,0,1,2.19-1.59,2.56,2.56,0,0,0-.37-.67,1.13,1.13,0,0,0-1.47-.32,2.58,2.58,0,0,0-.86.59,4.55,4.55,0,0,0-.51.64l-.27-.18c.08-.11.18-.25.32-.41a4,4,0,0,1,.51-.5,2.77,2.77,0,0,1,.71-.42,1.66,1.66,0,0,1,1-.16,1.41,1.41,0,0,1,.73.41,2.6,2.6,0,0,1,.49.77l1.25,2.87-.28.12-.3-.57h0a5.26,5.26,0,0,1-.61.84A2.42,2.42,0,0,1,211.25,639.06Zm-.1-.29a2.31,2.31,0,0,0,.78-.55,5.57,5.57,0,0,0,.66-1l-.69-1.58a9.79,9.79,0,0,0-1.57,1,2.33,2.33,0,0,0-.69.85.92.92,0,0,0,0,.76.86.86,0,0,0,.64.58A1.45,1.45,0,0,0,211.15,638.77Z" transform="translate(0 -0.91)"/><path d="M217.35,636.32l-1.91-4.38c-.06-.13-.12-.29-.2-.5s-.14-.37-.18-.5l-.05,0c0,.15-.06.3-.1.45l-.12.48-.92,3.46,3.91-1.67.11.27-4.35,1.86-.07-.16,1.4-5.28.23-.1,2.58,5.91Z" transform="translate(0 -0.91)"/><path d="M221.86,634.52a2.15,2.15,0,0,1-.8.16,3.19,3.19,0,0,1-.92-.08h0l.14.46-.28.12-2.9-6.66.34-.14.85,2,.36.9a5,5,0,0,1,.61-.86,2.14,2.14,0,0,1,.81-.6,2.12,2.12,0,0,1,1.23-.19,1.88,1.88,0,0,1,1,.5,3.35,3.35,0,0,1,.73,1.1,2.75,2.75,0,0,1,.26,1.42,2.22,2.22,0,0,1-.44,1.16A2.37,2.37,0,0,1,221.86,634.52Zm-.09-.29a1.73,1.73,0,0,0,.81-.67,1.92,1.92,0,0,0,.31-1,2.61,2.61,0,0,0-.24-1.19,3.29,3.29,0,0,0-.6-.94,1.64,1.64,0,0,0-.83-.48,1.78,1.78,0,0,0-1.08.15,1.84,1.84,0,0,0-.71.54,4.39,4.39,0,0,0-.63.94l1.19,2.73a2.88,2.88,0,0,0,1,.1A2.33,2.33,0,0,0,221.77,634.23Z" transform="translate(0 -0.91)"/><path d="M227.38,632.16a2.37,2.37,0,0,1-.8.16,3.54,3.54,0,0,1-.92-.08h0l.15.46-.28.12-2.9-6.66.33-.15.86,2,.36.9a5,5,0,0,1,.61-.86,2.14,2.14,0,0,1,.81-.6,2.22,2.22,0,0,1,1.23-.2,2,2,0,0,1,1,.51,3.25,3.25,0,0,1,.73,1.1,2.73,2.73,0,0,1,.26,1.41,2.28,2.28,0,0,1-.44,1.16A2.37,2.37,0,0,1,227.38,632.16Zm-.09-.29a1.73,1.73,0,0,0,.81-.67,1.92,1.92,0,0,0,.31-1,2.61,2.61,0,0,0-.24-1.19,3.37,3.37,0,0,0-.6-.94,1.65,1.65,0,0,0-.84-.49,1.7,1.7,0,0,0-1.07.16,1.91,1.91,0,0,0-.71.53,4.35,4.35,0,0,0-.63,1l1.18,2.72a3,3,0,0,0,1,.11A2.64,2.64,0,0,0,227.29,631.87Z" transform="translate(0 -0.91)"/><path d="M286.7,242.62l1.93-1.11-.56-.73.23-.18.59.77,1.58-.88-.61-.79.23-.18.62.81,1.76-1,.2.25-1.76,1,1,1.35,1.77-1,.19.25-1.76,1,.56.72-.23.17-.58-.74-1.57.89.59.76-.23.18-.62-.8-1.93,1.11-.2-.25,1.93-1.12-1.05-1.35-1.93,1.11Zm2.39-1,1.06,1.37,1.56-.89-1-1.37Z" transform="translate(0 -0.91)"/><path d="M290,246.83l4.79-3.65a1.87,1.87,0,0,1,.72-.36.94.94,0,0,1,.62.06,1.25,1.25,0,0,1,.53.43,1.82,1.82,0,0,1,.19.31c.05.12.1.24.14.37l-.3.09a1.5,1.5,0,0,0-.27-.6.74.74,0,0,0-.65-.34,1.49,1.49,0,0,0-.8.35l-4.75,3.62Zm3.16-3.34.21-.15.48.55,1,1.28-.24.18Z" transform="translate(0 -0.91)"/><path d="M292.12,249.81a2.08,2.08,0,0,1-.36-.69,1.19,1.19,0,0,1,0-.7,1.23,1.23,0,0,1,.47-.62,1.32,1.32,0,0,1,1.48-.08,8.13,8.13,0,0,1,2.1,1.71,2.51,2.51,0,0,0,.56-.52,1.15,1.15,0,0,0,.26-.68,1.24,1.24,0,0,0-.31-.81,2.41,2.41,0,0,0-.79-.68,4,4,0,0,0-.74-.33l.1-.31.48.21a4.21,4.21,0,0,1,.62.37,3.12,3.12,0,0,1,.58.57,1.62,1.62,0,0,1,.4.93,1.36,1.36,0,0,1-.22.81,2.79,2.79,0,0,1-.63.66l-2.5,1.9-.18-.24.48-.43,0,0a5.27,5.27,0,0,1-1-.38A2.41,2.41,0,0,1,292.12,249.81Zm.26-.16a2.19,2.19,0,0,0,.73.61,5.45,5.45,0,0,0,1.09.4l1.38-1a10.9,10.9,0,0,0-1.37-1.26,2.39,2.39,0,0,0-1-.46,1,1,0,0,0-.75.2.87.87,0,0,0-.41.76A1.46,1.46,0,0,0,292.38,249.65Z" transform="translate(0 -0.91)"/><path d="M295.93,254.73a2.42,2.42,0,0,1-.5-1.15,2.15,2.15,0,0,1,.15-1.22,2.61,2.61,0,0,1,.88-1.08,2.77,2.77,0,0,1,1-.5,2.38,2.38,0,0,1,.95-.08,2.41,2.41,0,0,1,.86.27,2.27,2.27,0,0,1,.66.57,2.18,2.18,0,0,1,.45,1,1.66,1.66,0,0,1-.18,1,2.7,2.7,0,0,1-.82.93l-.12.09-.15.1-2.39-3.08a2.41,2.41,0,0,0-.74.89,1.93,1.93,0,0,0-.19,1.05,2,2,0,0,0,.44,1,2.59,2.59,0,0,0,.58.57,2.51,2.51,0,0,0,.66.32l-.13.3a7,7,0,0,1-.66-.34A2.76,2.76,0,0,1,295.93,254.73Zm1-3.32,2.17,2.81A2.11,2.11,0,0,0,300,253a1.6,1.6,0,0,0-.35-1.25,1.81,1.81,0,0,0-.73-.55A1.89,1.89,0,0,0,298,251,2.32,2.32,0,0,0,296.93,251.41Z" transform="translate(0 -0.91)"/><path d="M298.94,258.62a1.67,1.67,0,0,1-.37-1.13,2.45,2.45,0,0,1,.48-1.26A7.22,7.22,0,0,1,302,254a2.41,2.41,0,0,1,1.33-.12,1.77,1.77,0,0,1,1,.66,1.66,1.66,0,0,1,.38,1.12,2.34,2.34,0,0,1-.47,1.24,5.88,5.88,0,0,1-1.3,1.29,6.41,6.41,0,0,1-1.6.92,2.41,2.41,0,0,1-1.35.14A1.7,1.7,0,0,1,298.94,258.62Zm.25-.18a1.28,1.28,0,0,0,.83.49,2.28,2.28,0,0,0,1.19-.16,6.9,6.9,0,0,0,2.67-2,2.27,2.27,0,0,0,.45-1.09,1.35,1.35,0,0,0-1.1-1.42,2.33,2.33,0,0,0-1.18.15,5.85,5.85,0,0,0-1.46.85,5.93,5.93,0,0,0-1.21,1.18,2.26,2.26,0,0,0-.46,1.1A1.28,1.28,0,0,0,299.19,258.44Z" transform="translate(0 -0.91)"/><path d="M302.76,263.35l3.82-2.9.44-.32.45-.29,0,0h-1l-3.61,0,2.59,3.35-.23.18-2.89-3.73.14-.11,5.51.05.15.2L303,263.63Z" transform="translate(0 -0.91)"/><path d="M305.62,267.24a2.63,2.63,0,0,1-.51-1.15,2.36,2.36,0,0,1,.15-1.23,2.69,2.69,0,0,1,.88-1.08,2.87,2.87,0,0,1,1-.49,2.39,2.39,0,0,1,.95-.09,2.29,2.29,0,0,1,.86.28,2.1,2.1,0,0,1,.66.56,2.06,2.06,0,0,1,.44,1,1.71,1.71,0,0,1-.17,1,2.81,2.81,0,0,1-.82.93l-.12.1-.16.09-2.38-3.08a2.61,2.61,0,0,0-.75.89,1.92,1.92,0,0,0-.18,1,2,2,0,0,0,.43,1,2.57,2.57,0,0,0,.59.56,2.91,2.91,0,0,0,.66.33l-.13.3a7.16,7.16,0,0,1-.66-.35A2.72,2.72,0,0,1,305.62,267.24Zm1-3.33,2.18,2.81a2.06,2.06,0,0,0,.89-1.25,1.53,1.53,0,0,0-.34-1.24,1.82,1.82,0,0,0-.73-.56,2,2,0,0,0-1-.14A2.49,2.49,0,0,0,306.61,263.91Z" transform="translate(0 -0.91)"/><path d="M184.26,617.7l-.4-2.18-.89.29-.09-.28.92-.3-.31-1.76-1,.3-.09-.27,1-.32-.35-2,.3-.1.35,2,1.64-.53-.34-2,.31-.1.35,2,.87-.28.09.28-.9.29.33,1.76.91-.3.09.28-1,.31.42,2.17-.31.1-.42-2.17-1.64.53.41,2.18Zm-.15-2.57,1.65-.53-.32-1.76-1.65.53Z" transform="translate(0 -0.91)"/><path d="M187.23,612l-.07-.25.68-.27,1.55-.5.09.29Zm2.12,4.06-1.87-5.69a1.81,1.81,0,0,1-.11-.79,1,1,0,0,1,.27-.57,1.37,1.37,0,0,1,.58-.34,1.35,1.35,0,0,1,.36-.07,1.77,1.77,0,0,1,.4,0l0,.3a1.46,1.46,0,0,0-.66.06.75.75,0,0,0-.54.49,1.56,1.56,0,0,0,.07.86l1.86,5.65Z" transform="translate(0 -0.91)"/><path d="M193.57,614.81a2.69,2.69,0,0,1-1.17.14,2,2,0,0,1-1-.36,1.45,1.45,0,0,1-.56-.77,1.47,1.47,0,0,1,0-.83,2.76,2.76,0,0,1,.33-.77,3.92,3.92,0,0,1,.51-.61v0a2.89,2.89,0,0,1-.86-.35,1.28,1.28,0,0,1-.58-.74,1.39,1.39,0,0,1,0-.83,1.57,1.57,0,0,1,.45-.72,2,2,0,0,1,.81-.47,2.2,2.2,0,0,1,1.05-.11,1.6,1.6,0,0,1,.8.37,1.64,1.64,0,0,1,.48.74,1.55,1.55,0,0,1,.05.71,2.32,2.32,0,0,1-.21.66,3.45,3.45,0,0,1-.29.52v0a5.23,5.23,0,0,1,.68.18,1.94,1.94,0,0,1,.61.35,1.3,1.3,0,0,1,.41.65,1.39,1.39,0,0,1,0,.88,1.82,1.82,0,0,1-.52.8A2.48,2.48,0,0,1,193.57,614.81Zm-.57-3.44a2.87,2.87,0,0,0,.47-.92,1.43,1.43,0,0,0,0-.87,1.33,1.33,0,0,0-1-.91,1.69,1.69,0,0,0-.85.08,1.51,1.51,0,0,0-.88.65,1.16,1.16,0,0,0-.1,1,1.13,1.13,0,0,0,.52.66,2.59,2.59,0,0,0,.88.26C192.33,611.33,192.67,611.36,193,611.37Zm.48,3.16a2.23,2.23,0,0,0,.82-.46,1.43,1.43,0,0,0,.42-.66,1.15,1.15,0,0,0,0-.71,1.07,1.07,0,0,0-.4-.58,1.67,1.67,0,0,0-.63-.3,4.68,4.68,0,0,0-.8-.11c-.29,0-.58,0-.88,0a3.3,3.3,0,0,0-.7,1,1.41,1.41,0,0,0-.05,1.05,1.28,1.28,0,0,0,.45.63,1.72,1.72,0,0,0,.8.3A2.41,2.41,0,0,0,193.48,614.53Z" transform="translate(0 -0.91)"/><path d="M198,613.25a13.86,13.86,0,0,1-.39-1.79,8.87,8.87,0,0,1-.1-1.6,8,8,0,0,1,.18-1.54,10.62,10.62,0,0,1,.47-1.57l-3.64,1.17-.1-.29,4.11-1.32.06.18a10.14,10.14,0,0,0-.54,1.75,7.46,7.46,0,0,0-.18,1.59,8.49,8.49,0,0,0,.13,1.58,15.85,15.85,0,0,0,.39,1.71Z" transform="translate(0 -0.91)"/><path d="M203,611.75a1.91,1.91,0,0,1-.83.1,2,2,0,0,1-.72-.23l.15-.3a1.48,1.48,0,0,0,.66.22,1.69,1.69,0,0,0,.67-.08,2,2,0,0,0,.93-.63,2.17,2.17,0,0,0,.44-1.25,5.36,5.36,0,0,0-.33-2,4.43,4.43,0,0,0-.63-1.27,2.13,2.13,0,0,0-.9-.73,1.71,1.71,0,0,0-1.16,0,1.4,1.4,0,0,0-.66.45,1.75,1.75,0,0,0-.32.75,2.06,2.06,0,0,0,.08.88,2.4,2.4,0,0,0,.43.77,1.3,1.3,0,0,0,.69.42,1.77,1.77,0,0,0,1-.07,2.06,2.06,0,0,0,.77-.52,2.92,2.92,0,0,0,.65-1.09l.14.4a2.84,2.84,0,0,1-.38.65,2.69,2.69,0,0,1-.5.51,2.18,2.18,0,0,1-.62.33,2.28,2.28,0,0,1-1.08.1,1.48,1.48,0,0,1-.85-.43,2.24,2.24,0,0,1-.56-1,2,2,0,0,1,.37-1.94,1.84,1.84,0,0,1,.82-.54,2.38,2.38,0,0,1,1-.1,1.84,1.84,0,0,1,.86.34,3,3,0,0,1,.73.76,4.54,4.54,0,0,1,.55,1.17,6.51,6.51,0,0,1,.34,1.71,3.16,3.16,0,0,1-.2,1.25,2.15,2.15,0,0,1-.6.84A2.44,2.44,0,0,1,203,611.75Z" transform="translate(0 -0.91)"/><path d="M208.07,610.13a1.89,1.89,0,0,1-1.56-.13l.15-.3a1.48,1.48,0,0,0,.66.22,1.9,1.9,0,0,0,.67-.08,1.93,1.93,0,0,0,.93-.64,2.14,2.14,0,0,0,.44-1.24,5.36,5.36,0,0,0-.33-2,4.31,4.31,0,0,0-.63-1.27,2.13,2.13,0,0,0-.9-.73,1.71,1.71,0,0,0-1.16,0,1.27,1.27,0,0,0-.66.45,1.58,1.58,0,0,0-.31.75,1.75,1.75,0,0,0,.08.87,2.17,2.17,0,0,0,.42.78,1.3,1.3,0,0,0,.69.42,1.77,1.77,0,0,0,.95-.07,2,2,0,0,0,.77-.52,2.92,2.92,0,0,0,.65-1.09l.15.4a3.81,3.81,0,0,1-.38.65,3.08,3.08,0,0,1-.51.51,2.15,2.15,0,0,1-.62.32,2.18,2.18,0,0,1-1.08.11,1.48,1.48,0,0,1-.85-.43,2.24,2.24,0,0,1-.56-1,2,2,0,0,1-.07-1.06,1.88,1.88,0,0,1,.44-.88,1.84,1.84,0,0,1,.82-.54,2.22,2.22,0,0,1,1-.1,1.91,1.91,0,0,1,.87.34,2.93,2.93,0,0,1,.72.76,4.54,4.54,0,0,1,.55,1.17,6.14,6.14,0,0,1,.34,1.7,3.21,3.21,0,0,1-.2,1.26,2,2,0,0,1-.6.83A2.35,2.35,0,0,1,208.07,610.13Z" transform="translate(0 -0.91)"/><path d="M214,608.21a2.08,2.08,0,0,1-.81.09,3.56,3.56,0,0,1-.91-.17h0l.11.48-.29.09-2.27-6.9.34-.11.67,2,.28.93a4.65,4.65,0,0,1,.68-.8,2.37,2.37,0,0,1,.86-.53,2.28,2.28,0,0,1,1.25-.08,1.91,1.91,0,0,1,.94.6,3.46,3.46,0,0,1,.63,1.16,2.77,2.77,0,0,1,.12,1.43,2.4,2.4,0,0,1-.54,1.12A2.36,2.36,0,0,1,214,608.21Zm-.06-.3a1.77,1.77,0,0,0,.87-.58,2.08,2.08,0,0,0,.4-1,2.7,2.7,0,0,0-.13-1.21,3.3,3.3,0,0,0-.51-1,1.63,1.63,0,0,0-.78-.56,1.8,1.8,0,0,0-1.09,0,2,2,0,0,0-.76.47,4.76,4.76,0,0,0-.71.88l.92,2.83a3.11,3.11,0,0,0,1,.2A2.4,2.4,0,0,0,214,607.91Z" transform="translate(0 -0.91)"/><path d="M313.55,220.32l2-.91-.49-.78.26-.16.51.82,1.65-.72-.53-.84.25-.16.54.87,1.86-.81.17.27-1.86.81.91,1.45,1.86-.79.17.27-1.85.8.48.77-.25.16-.5-.8-1.65.73.51.81-.25.15-.54-.85-2,.92-.17-.28,2-.91-.9-1.46-2,.91Zm2.48-.75.91,1.46,1.65-.73-.91-1.46Z" transform="translate(0 -0.91)"/><path d="M316.36,224.83l5.14-3.15a1.87,1.87,0,0,1,.75-.29,1,1,0,0,1,.62.12,1.37,1.37,0,0,1,.48.48,1.66,1.66,0,0,1,.15.33,2.38,2.38,0,0,1,.11.38l-.3.06a1.81,1.81,0,0,0-.22-.63.78.78,0,0,0-.61-.4,1.5,1.5,0,0,0-.83.27l-5.1,3.13Zm3.49-3,.22-.14.43.6.85,1.37-.26.16Z" transform="translate(0 -0.91)"/><path d="M318.77,228.92a2.33,2.33,0,0,1-.28-.77,3.46,3.46,0,0,1-.05-.91v0l-.44.22-.16-.26,6.22-3.82.2.31-1.84,1.12-.85.49a4.42,4.42,0,0,1,.95.47,2.2,2.2,0,0,1,.72.7,2.11,2.11,0,0,1,.37,1.18,1.85,1.85,0,0,1-.36,1,3.31,3.31,0,0,1-1,.88,2.94,2.94,0,0,1-1.37.46,2.35,2.35,0,0,1-1.22-.26A2.44,2.44,0,0,1,318.77,228.92Zm.28-.14a1.81,1.81,0,0,0,.78.7,2,2,0,0,0,1.06.15,2.66,2.66,0,0,0,1.16-.41,3.21,3.21,0,0,0,.85-.72,1.57,1.57,0,0,0,.36-.89,1.66,1.66,0,0,0-.3-1,2,2,0,0,0-.65-.62,4.3,4.3,0,0,0-1-.48L318.73,227a3.16,3.16,0,0,0,0,1A2.55,2.55,0,0,0,319.05,228.78Z" transform="translate(0 -0.91)"/><path d="M321.8,233.77a2.31,2.31,0,0,1-.36-1.14,1.92,1.92,0,0,1,.32-1.09,3.25,3.25,0,0,1,1-1,2.78,2.78,0,0,1,1.33-.43,2.45,2.45,0,0,1,1.21.27,2.42,2.42,0,0,1,.9.84,2.17,2.17,0,0,1,.32.81,3.69,3.69,0,0,1,0,.89l.76-.5,1.74-1.06.19.31L323,235.53l-.16-.26.52-.38v0a3.43,3.43,0,0,1-.86-.38A2.18,2.18,0,0,1,321.8,233.77Zm.28-.14a1.87,1.87,0,0,0,.66.65,4,4,0,0,0,1,.4l2.54-1.56a3.08,3.08,0,0,0,0-1,2.34,2.34,0,0,0-.29-.76,1.82,1.82,0,0,0-.79-.69,2.14,2.14,0,0,0-1.07-.17,2.48,2.48,0,0,0-1.11.37,2.84,2.84,0,0,0-.88.79,1.78,1.78,0,0,0-.33.94A1.72,1.72,0,0,0,322.08,233.63Z" transform="translate(0 -0.91)"/><path d="M325.1,239.05a2.66,2.66,0,0,1-.39-1.19,2.27,2.27,0,0,1,.28-1.21,2.56,2.56,0,0,1,1-1,2.73,2.73,0,0,1,1-.4,2.38,2.38,0,0,1,1,0,2.25,2.25,0,0,1,.82.36,2,2,0,0,1,.6.63,2.15,2.15,0,0,1,.35,1,1.77,1.77,0,0,1-.28,1,2.78,2.78,0,0,1-.91.85l-.13.08-.16.07L326.17,236a2.51,2.51,0,0,0-.84.81,2,2,0,0,0-.29,1,2,2,0,0,0,.33,1.08,2.74,2.74,0,0,0,.53.62,3,3,0,0,0,.62.38l-.16.29a5.09,5.09,0,0,1-.62-.41A2.69,2.69,0,0,1,325.1,239.05Zm1.33-3.21,1.88,3a2,2,0,0,0,1-1.15,1.51,1.51,0,0,0-.22-1.27,1.74,1.74,0,0,0-.66-.63,2,2,0,0,0-.94-.23A2.45,2.45,0,0,0,326.43,235.84Z" transform="translate(0 -0.91)"/><path d="M328.24,243.86l4.1-2.52.46-.27.48-.25,0,0-.47,0-.5,0-3.59-.4,2.24,3.59-.25.15-2.49-4,.14-.09,5.48.6.13.22-5.52,3.38Z" transform="translate(0 -0.91)"/><path d="M329.44,245.77l.18-.11c1.06.28,2,.51,2.7.66a8.26,8.26,0,0,0,1.85.23,2.36,2.36,0,0,0,1.25-.3,1.77,1.77,0,0,0,.55-.54,1.25,1.25,0,0,0,.18-.72,1.86,1.86,0,0,0-.32-.88,1.78,1.78,0,0,0-.7-.66,3,3,0,0,0-.93-.33l0-.32a3.79,3.79,0,0,1,1,.37,2.3,2.3,0,0,1,.82.82,2.2,2.2,0,0,1,.37,1,1.58,1.58,0,0,1-.17.89,1.84,1.84,0,0,1-.68.68,2.51,2.51,0,0,1-1.35.34,8.53,8.53,0,0,1-1.85-.23c-.72-.15-1.54-.35-2.48-.59.12.16.23.33.35.5s.23.33.33.5l1.34,2.15-.26.16Z" transform="translate(0 -0.91)"/><path d="M176,591.34l-.24-2.2-.9.22-.07-.29.94-.22-.17-1.79-1,.24-.07-.29,1-.24-.19-2,.31-.08.2,2,1.67-.4-.18-2,.31-.08.2,2,.88-.21.07.28-.91.22.18,1.78.94-.22.07.28-1,.24.25,2.2-.32.07-.24-2.2-1.68.4.23,2.21Zm.05-2.57,1.69-.4-.19-1.78-1.68.4Z" transform="translate(0 -0.91)"/><path d="M179.36,585.88l-.06-.25.71-.22,1.58-.38.07.3Zm1.79,4.21-1.42-5.82a1.81,1.81,0,0,1,0-.79,1,1,0,0,1,.3-.54,1.4,1.4,0,0,1,.61-.3,1.5,1.5,0,0,1,.37,0,2.75,2.75,0,0,1,.4,0l0,.3a1.67,1.67,0,0,0-.67,0,.75.75,0,0,0-.57.45,1.42,1.42,0,0,0,0,.87L181.5,590Z" transform="translate(0 -0.91)"/><path d="M185.82,589.1a2.21,2.21,0,0,1-.82,0,3.45,3.45,0,0,1-.89-.24h0l.07.49-.3.07-1.72-7.06.35-.08.51,2.08.2,1a4.44,4.44,0,0,1,.75-.75,2.27,2.27,0,0,1,.9-.46,2.24,2.24,0,0,1,1.24,0,1.83,1.83,0,0,1,.9.66,3.55,3.55,0,0,1,.53,1.21,2.81,2.81,0,0,1,0,1.44,2.26,2.26,0,0,1-.63,1.07A2.37,2.37,0,0,1,185.82,589.1Zm0-.3a1.77,1.77,0,0,0,.91-.52,2,2,0,0,0,.48-.95,2.81,2.81,0,0,0,0-1.22,3.11,3.11,0,0,0-.44-1,1.62,1.62,0,0,0-.73-.62,1.8,1.8,0,0,0-1.09,0,2.14,2.14,0,0,0-.79.41,4.52,4.52,0,0,0-.79.83l.71,2.88a2.86,2.86,0,0,0,1,.28A2.39,2.39,0,0,0,185.78,588.8Z" transform="translate(0 -0.91)"/><path d="M191.66,587.7a2.43,2.43,0,0,1-.82,0,3.56,3.56,0,0,1-.89-.24h0l.07.49-.29.07L188,581l.36-.08.5,2.08.21,1a4,4,0,0,1,.74-.75,2.27,2.27,0,0,1,.9-.46,2.19,2.19,0,0,1,1.25,0,1.85,1.85,0,0,1,.89.66,3.2,3.2,0,0,1,.53,1.21,2.82,2.82,0,0,1,0,1.44,2.42,2.42,0,0,1-.64,1.07A2.32,2.32,0,0,1,191.66,587.7Zm0-.3a1.77,1.77,0,0,0,.91-.52,2.09,2.09,0,0,0,.49-1,2.77,2.77,0,0,0,0-1.21,3.33,3.33,0,0,0-.43-1,1.7,1.7,0,0,0-.74-.62,1.8,1.8,0,0,0-1.09,0,2.07,2.07,0,0,0-.79.41,4.86,4.86,0,0,0-.78.83l.7,2.88a2.91,2.91,0,0,0,1,.28A2.34,2.34,0,0,0,191.62,587.4Z" transform="translate(0 -0.91)"/><path d="M197.44,586.31a2.45,2.45,0,0,1-1.26,0,2.19,2.19,0,0,1-1-.64,2.69,2.69,0,0,1-.62-1.24,2.73,2.73,0,0,1,0-1.42,2.3,2.3,0,0,1,.66-1,2.43,2.43,0,0,1,1.08-.56,2,2,0,0,1,.94,0,3.37,3.37,0,0,1,.72.26l-.17.29a2.61,2.61,0,0,0-.66-.24,1.78,1.78,0,0,0-.76,0,1.93,1.93,0,0,0-.93.51,2.12,2.12,0,0,0-.52.94,2.57,2.57,0,0,0,0,1.2,2.63,2.63,0,0,0,.52,1.06,1.83,1.83,0,0,0,.87.59,2,2,0,0,0,1.1,0,1.87,1.87,0,0,0,.75-.36,2.61,2.61,0,0,0,.55-.55l.26.18a3.09,3.09,0,0,1-.63.62A2.32,2.32,0,0,1,197.44,586.31Z" transform="translate(0 -0.91)"/><path d="M202.11,585.19a2.45,2.45,0,0,1-1.26,0,2.19,2.19,0,0,1-1-.64,2.69,2.69,0,0,1-.62-1.24,2.73,2.73,0,0,1,0-1.42,2.3,2.3,0,0,1,.66-1,2.49,2.49,0,0,1,1.08-.56,1.89,1.89,0,0,1,.94,0,2.9,2.9,0,0,1,.72.25l-.17.29a2.61,2.61,0,0,0-.66-.24,1.78,1.78,0,0,0-.76,0,1.93,1.93,0,0,0-.93.51,2.12,2.12,0,0,0-.52.94,2.57,2.57,0,0,0,0,1.2,2.63,2.63,0,0,0,.52,1.06,1.93,1.93,0,0,0,.87.6,2,2,0,0,0,1.1,0,1.87,1.87,0,0,0,.75-.36,2.61,2.61,0,0,0,.55-.55l.26.19a3.05,3.05,0,0,1-.63.61A2.32,2.32,0,0,1,202.11,585.19Z" transform="translate(0 -0.91)"/><path d="M206.66,584.1a2.8,2.8,0,0,1-1.18,0,2.12,2.12,0,0,1-.92-.43,1.49,1.49,0,0,1-.5-.81,1.46,1.46,0,0,1,0-.83,2.5,2.5,0,0,1,.39-.74,3.34,3.34,0,0,1,.55-.57v0a2.86,2.86,0,0,1-.82-.41,1.29,1.29,0,0,1-.52-.78,1.33,1.33,0,0,1,0-.84,1.65,1.65,0,0,1,.5-.68,2.16,2.16,0,0,1,.85-.4,2.1,2.1,0,0,1,1,0,1.63,1.63,0,0,1,.77.43,1.6,1.6,0,0,1,.41.77,1.42,1.42,0,0,1,0,.71,2.21,2.21,0,0,1-.26.65,3.61,3.61,0,0,1-.33.5v0c.23.07.45.15.67.24a2.27,2.27,0,0,1,.58.39,1.43,1.43,0,0,1,.36.68,1.4,1.4,0,0,1-.07.88,1.8,1.8,0,0,1-.58.75A2.53,2.53,0,0,1,206.66,584.1Zm-.29-3.47a3.17,3.17,0,0,0,.54-.89,1.49,1.49,0,0,0,.05-.86,1.38,1.38,0,0,0-.33-.62,1.43,1.43,0,0,0-.63-.37,1.75,1.75,0,0,0-.85,0,1.5,1.5,0,0,0-.93.59,1.16,1.16,0,0,0-.18,1,1.15,1.15,0,0,0,.48.7,2.4,2.4,0,0,0,.85.33C205.7,580.54,206,580.59,206.37,580.63Zm.22,3.18a2.28,2.28,0,0,0,.86-.39,1.53,1.53,0,0,0,.47-.62,1.27,1.27,0,0,0,0-.72,1.16,1.16,0,0,0-.35-.61,1.72,1.72,0,0,0-.61-.34,3.58,3.58,0,0,0-.78-.17c-.29,0-.58-.08-.88-.1a3.12,3.12,0,0,0-.77.92,1.36,1.36,0,0,0-.14,1,1.26,1.26,0,0,0,.4.66,1.66,1.66,0,0,0,.78.36A2.18,2.18,0,0,0,206.59,583.81Z" transform="translate(0 -0.91)"/><path d="M339.15,204.44l2.12-.71-.42-.83.27-.13.43.87,1.71-.56-.44-.89.27-.13.45.91,1.92-.63.14.29-1.92.63.76,1.53,1.93-.62.14.29-1.92.63.41.81-.27.13-.42-.84-1.71.57.43.85-.27.13-.45-.9-2.11.72-.14-.29,2.11-.72-.76-1.53-2.12.71Zm2.54-.51.77,1.54,1.71-.57-.77-1.54Z" transform="translate(0 -0.91)"/><path d="M341.52,209.2l5.42-2.65a1.75,1.75,0,0,1,.77-.21.94.94,0,0,1,.6.17,1.36,1.36,0,0,1,.43.53,1.5,1.5,0,0,1,.12.34,1.68,1.68,0,0,1,.07.39l-.31,0a1.34,1.34,0,0,0-.15-.64.73.73,0,0,0-.57-.46,1.54,1.54,0,0,0-.85.19l-5.38,2.62Zm3.76-2.66.23-.11.37.64.71,1.44-.27.13Z" transform="translate(0 -0.91)"/><path d="M343.09,212.63a2,2,0,0,1-.22-.81,2.1,2.1,0,0,1,.13-.74l.32.11a1.35,1.35,0,0,0-.12.68,1.65,1.65,0,0,0,.17.65,2,2,0,0,0,.77.82,2.17,2.17,0,0,0,1.3.25,5.27,5.27,0,0,0,1.94-.6,4.43,4.43,0,0,0,1.18-.8,2.12,2.12,0,0,0,.6-1,1.62,1.62,0,0,0-.17-1.14,1.38,1.38,0,0,0-.54-.58,1.67,1.67,0,0,0-.8-.2,1.78,1.78,0,0,0-.86.2,2.17,2.17,0,0,0-.71.53,1.26,1.26,0,0,0-.33.73,1.78,1.78,0,0,0,.21.93,2,2,0,0,0,.63.68,2.92,2.92,0,0,0,1.18.48l-.38.2a3.3,3.3,0,0,1-.7-.28,2.56,2.56,0,0,1-.59-.43,2.07,2.07,0,0,1-.41-.56,2.19,2.19,0,0,1-.26-1,1.55,1.55,0,0,1,.31-.9,2.42,2.42,0,0,1,.88-.68,2,2,0,0,1,1.05-.22,1.9,1.9,0,0,1,.94.3,1.77,1.77,0,0,1,.65.73,2.24,2.24,0,0,1,.25.94,1.94,1.94,0,0,1-.22.91,3,3,0,0,1-.65.82,5.12,5.12,0,0,1-1.09.7,6.62,6.62,0,0,1-1.66.58,3.2,3.2,0,0,1-1.28,0,2.18,2.18,0,0,1-.92-.47A2.55,2.55,0,0,1,343.09,212.63Z" transform="translate(0 -0.91)"/><path d="M345.85,218.17a2.39,2.39,0,0,1-.27-1.22,2.1,2.1,0,0,1,.39-1.17,2.65,2.65,0,0,1,1.07-.89,2.71,2.71,0,0,1,1-.3,2.54,2.54,0,0,1,1,.1,2.22,2.22,0,0,1,.78.44,2.09,2.09,0,0,1,.54.68,2.13,2.13,0,0,1,.24,1.07,1.73,1.73,0,0,1-.37,1,2.83,2.83,0,0,1-1,.76l-.14.06a.38.38,0,0,1-.17.06l-1.73-3.47a2.41,2.41,0,0,0-.9.72,1.9,1.9,0,0,0-.17,2.1,2.63,2.63,0,0,0,.46.67,2.83,2.83,0,0,0,.59.44l-.19.27a5.7,5.7,0,0,1-.58-.47A2.49,2.49,0,0,1,345.85,218.17Zm1.63-3.07,1.58,3.18a2.07,2.07,0,0,0,1.12-1.05,1.53,1.53,0,0,0-.09-1.28,1.8,1.8,0,0,0-.61-.7,2,2,0,0,0-.91-.31A2.38,2.38,0,0,0,347.48,215.1Z" transform="translate(0 -0.91)"/><path d="M348.14,222.79a2.12,2.12,0,0,1-.24-.95,1.81,1.81,0,0,1,.21-.9,2.91,2.91,0,0,1,.66-.82,4.85,4.85,0,0,1,1.1-.71,6.56,6.56,0,0,1,1.65-.58,3,3,0,0,1,1.27,0,2.16,2.16,0,0,1,.92.46,2.93,2.93,0,0,1,.61.79,1.88,1.88,0,0,1,.21.81,2,2,0,0,1-.12.74l-.31-.1a1.42,1.42,0,0,0,.11-.67,1.55,1.55,0,0,0-.18-.66,1.88,1.88,0,0,0-.76-.82,2.12,2.12,0,0,0-1.3-.25,5.23,5.23,0,0,0-1.93.6,4.77,4.77,0,0,0-1.19.81,2,2,0,0,0-.59,1,1.65,1.65,0,0,0,.16,1.13,1.37,1.37,0,0,0,.55.59,1.75,1.75,0,0,0,.79.21,2,2,0,0,0,.86-.2,2.19,2.19,0,0,0,.71-.54,1.25,1.25,0,0,0,.32-.73,1.69,1.69,0,0,0-.21-.93,2,2,0,0,0-.62-.69,3.15,3.15,0,0,0-1.18-.49l.37-.18a3.73,3.73,0,0,1,.71.27,3.14,3.14,0,0,1,.59.42,2.18,2.18,0,0,1,.41.56,2.26,2.26,0,0,1,.26,1,1.49,1.49,0,0,1-.31.9,2.34,2.34,0,0,1-.88.69,2.1,2.1,0,0,1-1.05.22,2.06,2.06,0,0,1-.94-.31A1.76,1.76,0,0,1,348.14,222.79Z" transform="translate(0 -0.91)"/><path d="M350.31,227.14a3.43,3.43,0,0,1-.32-.93,2.93,2.93,0,0,1,0-.78,4,4,0,0,1,.13-.64l.32.1a5.29,5.29,0,0,0-.13.6,2.36,2.36,0,0,0,0,.7,2.8,2.8,0,0,0,.28.83,1.75,1.75,0,0,0,.61.71,1.75,1.75,0,0,0,1.84.12,1.67,1.67,0,0,0,.94-1,1.86,1.86,0,0,0-.17-1.38,2,2,0,0,0-.43-.58,4.2,4.2,0,0,0-.57-.42l0-.34,2.81-1.09,1.42,2.86-.27.13-1.27-2.56-2.32.87a3.28,3.28,0,0,1,.5.42,2.51,2.51,0,0,1,.4.6,2.57,2.57,0,0,1,.29,1.08,1.62,1.62,0,0,1-.25,1,2.34,2.34,0,0,1-2.11,1,2.2,2.2,0,0,1-1-.43A2.33,2.33,0,0,1,350.31,227.14Z" transform="translate(0 -0.91)"/><path d="M352.64,231.83a2.94,2.94,0,0,1-.31-.92,3,3,0,0,1,0-.78,4.8,4.8,0,0,1,.13-.64l.33.1a4.43,4.43,0,0,0-.14.6,2.76,2.76,0,0,0,0,.7,2.9,2.9,0,0,0,.28.83,1.88,1.88,0,0,0,.61.7,1.71,1.71,0,0,0,.88.32,1.75,1.75,0,0,0,1-.19,1.67,1.67,0,0,0,.94-1,1.81,1.81,0,0,0-.17-1.38,1.92,1.92,0,0,0-.43-.59,3.56,3.56,0,0,0-.56-.42v-.34l2.82-1.08,1.42,2.85-.27.14-1.28-2.56-2.31.86a2.8,2.8,0,0,1,.49.43,2.52,2.52,0,0,1,.41.6,2.72,2.72,0,0,1,.29,1.07,1.74,1.74,0,0,1-.25,1,2.15,2.15,0,0,1-.92.76,2,2,0,0,1-1.2.22,2.1,2.1,0,0,1-1-.42A2.59,2.59,0,0,1,352.64,231.83Z" transform="translate(0 -0.91)"/><path d="M169.79,565.56l0-2.21-.92.14,0-.29,1-.15,0-1.79-1,.16-.05-.29,1-.16,0-2,.32-.05,0,2,1.7-.26,0-2,.32,0,0,2,.9-.14.05.29-.93.14,0,1.79.95-.15.05.29-1,.16.06,2.21-.32,0-.06-2.21-1.71.26.06,2.21Zm.27-2.56,1.71-.26,0-1.79-1.71.26Z" transform="translate(0 -0.91)"/><path d="M173.65,560.39l0-.25.72-.16,1.6-.25,0,.3Zm1.43,4.35-.93-5.91a1.9,1.9,0,0,1,0-.8.94.94,0,0,1,.35-.51,1.37,1.37,0,0,1,.64-.26,2.1,2.1,0,0,1,.36,0,2.73,2.73,0,0,1,.4,0l-.07.3a1.66,1.66,0,0,0-.66-.05.77.77,0,0,0-.61.41,1.46,1.46,0,0,0-.07.86l.92,5.87Z" transform="translate(0 -0.91)"/><path d="M179.69,564.15a2.55,2.55,0,0,1-1.26-.11,2.2,2.2,0,0,1-1-.72,2.62,2.62,0,0,1-.54-1.28,3,3,0,0,1,0-1.08,2.64,2.64,0,0,1,.39-.87,2.21,2.21,0,0,1,.65-.61,2,2,0,0,1,.82-.3,2,2,0,0,1,1.1.09,1.76,1.76,0,0,1,.81.63,2.75,2.75,0,0,1,.43,1.16.77.77,0,0,1,0,.15,1,1,0,0,1,0,.18l-3.87.6a2.42,2.42,0,0,0,.44,1.08,1.94,1.94,0,0,0,.84.66,2.08,2.08,0,0,0,1.12.12,2.75,2.75,0,0,0,.78-.24,3,3,0,0,0,.61-.42l.2.26c-.18.13-.39.27-.62.41A2.82,2.82,0,0,1,179.69,564.15Zm-2.47-2.46,3.53-.55a2,2,0,0,0-.68-1.37,1.61,1.61,0,0,0-1.26-.3,1.82,1.82,0,0,0-1.42,1.14A2.2,2.2,0,0,0,177.22,561.69Z" transform="translate(0 -0.91)"/><path d="M184,563.48a2,2,0,0,1-.85,0,1.93,1.93,0,0,1-.67-.34l.19-.27a1.6,1.6,0,0,0,.62.32,1.89,1.89,0,0,0,1.7-.45,2.13,2.13,0,0,0,.63-1.16,5.21,5.21,0,0,0,0-2,4.46,4.46,0,0,0-.42-1.35,2,2,0,0,0-.77-.86,1.68,1.68,0,0,0-1.15-.18,1.34,1.34,0,0,0-.72.34,1.65,1.65,0,0,0-.43.69,1.73,1.73,0,0,0-.07.88,2.22,2.22,0,0,0,.3.83,1.29,1.29,0,0,0,.61.52,1.72,1.72,0,0,0,.95.08,2,2,0,0,0,.85-.38,3,3,0,0,0,.82-1l.07.42a3.79,3.79,0,0,1-.48.58,3,3,0,0,1-.58.43,2.23,2.23,0,0,1-.66.22,2.29,2.29,0,0,1-1.09-.07,1.53,1.53,0,0,1-.77-.56,2.34,2.34,0,0,1-.4-1,2.09,2.09,0,0,1,.1-1.06,2,2,0,0,1,.58-.8,1.76,1.76,0,0,1,.9-.4,2.13,2.13,0,0,1,1,0,2,2,0,0,1,.8.47,3,3,0,0,1,.6.87,4.93,4.93,0,0,1,.35,1.24,5.81,5.81,0,0,1,.06,1.74,3.09,3.09,0,0,1-.4,1.2,2,2,0,0,1-.72.73A2.43,2.43,0,0,1,184,563.48Z" transform="translate(0 -0.91)"/><path d="M190.6,562.34l-.75-4.72c0-.13,0-.31-.06-.53s0-.39,0-.53h-.05c-.07.14-.14.28-.22.41a4.53,4.53,0,0,0-.23.44l-1.77,3.12,4.21-.65,0,.29-4.68.72,0-.17,2.68-4.76.25,0,1,6.36Z" transform="translate(0 -0.91)"/><path d="M194.58,561.84a1.86,1.86,0,0,1-.78,0,1.21,1.21,0,0,1-.62-.33,1.17,1.17,0,0,1-.32-.7,1.31,1.31,0,0,1,.64-1.34,8.06,8.06,0,0,1,2.52-1,2.38,2.38,0,0,0-.2-.75,1.2,1.2,0,0,0-.47-.55,1.25,1.25,0,0,0-.87-.11,2.39,2.39,0,0,0-1,.35,4,4,0,0,0-.65.49l-.22-.23.41-.33a4.57,4.57,0,0,1,.63-.35,2.7,2.7,0,0,1,.79-.23,1.64,1.64,0,0,1,1,.09,1.3,1.3,0,0,1,.6.58,2.7,2.7,0,0,1,.29.87l.49,3.08-.3,0-.15-.63h0a5.29,5.29,0,0,1-.81.66A2.31,2.31,0,0,1,194.58,561.84Zm0-.3a2.13,2.13,0,0,0,.89-.35,4.76,4.76,0,0,0,.88-.75l-.27-1.7a8.85,8.85,0,0,0-1.77.59,2.16,2.16,0,0,0-.88.65.94.94,0,0,0-.19.74.86.86,0,0,0,.48.72A1.45,1.45,0,0,0,194.56,561.54Z" transform="translate(0 -0.91)"/><path d="M200.79,560.88a2.11,2.11,0,0,1-.82,0,3.48,3.48,0,0,1-.87-.31h0l0,.48-.3.05-1.13-7.17.36-.06.33,2.11.12,1a4.92,4.92,0,0,1,.81-.69,2.35,2.35,0,0,1,2.17-.26,1.82,1.82,0,0,1,.84.74,3.3,3.3,0,0,1,.43,1.24,2.69,2.69,0,0,1-.11,1.43,2.27,2.27,0,0,1-.71,1A2.4,2.4,0,0,1,200.79,560.88Zm0-.3a1.79,1.79,0,0,0,1-.45,2,2,0,0,0,.56-.91,2.69,2.69,0,0,0,.06-1.21A3.08,3.08,0,0,0,202,557a1.65,1.65,0,0,0-.68-.68,1.84,1.84,0,0,0-1.08-.12,2.14,2.14,0,0,0-.82.35,4.48,4.48,0,0,0-.85.76l.46,2.93a3,3,0,0,0,1,.36A2.6,2.6,0,0,0,200.77,560.58Z" transform="translate(0 -0.91)"/><path d="M361.69,193.82l2.15-.59-.36-.85.27-.12.38.89,1.74-.46-.39-.92.27-.11.4.93,2-.51.12.29-2,.52.67,1.57,2-.51.13.3-2,.51.35.84-.27.11-.37-.86-1.74.47.38.88-.27.12-.4-.93-2.15.6-.13-.29,2.15-.6-.67-1.58-2.16.59Zm2.56-.37.68,1.58,1.74-.47L366,193Z" transform="translate(0 -0.91)"/><path d="M363.78,198.7l5.56-2.34a1.66,1.66,0,0,1,.79-.17,1,1,0,0,1,.59.2,1.45,1.45,0,0,1,.4.55,1.79,1.79,0,0,1,.1.35,2.57,2.57,0,0,1,0,.4H371a1.51,1.51,0,0,0-.12-.65.75.75,0,0,0-.54-.49,1.48,1.48,0,0,0-.86.14L363.92,199Zm3.91-2.44.23-.1.34.66.63,1.47-.28.12Z" transform="translate(0 -0.91)"/><path d="M365.47,202.94a2.35,2.35,0,0,1-.2-1.23,2.06,2.06,0,0,1,.46-1.12,2.78,2.78,0,0,1,1.14-.82,2.81,2.81,0,0,1,1.41-.24,2.31,2.31,0,0,1,1.15.47,2.54,2.54,0,0,1,.74,1,2,2,0,0,1,.18.91,2.79,2.79,0,0,1-.13.75l-.31-.12a2.63,2.63,0,0,0,.12-.69,1.67,1.67,0,0,0-.14-.74,1.86,1.86,0,0,0-.67-.82,2,2,0,0,0-1-.35,2.8,2.8,0,0,0-2.17.89,1.89,1.89,0,0,0-.29,2,2,2,0,0,0,.48.68,2.71,2.71,0,0,0,.64.44l-.14.29a3.85,3.85,0,0,1-.72-.52A2.18,2.18,0,0,1,365.47,202.94Z" transform="translate(0 -0.91)"/><path d="M367.37,207.37a2.46,2.46,0,0,1-.2-1.24,2.25,2.25,0,0,1,.45-1.15,2.73,2.73,0,0,1,1.13-.83,3,3,0,0,1,1.05-.24,2.29,2.29,0,0,1,.95.16,2.27,2.27,0,0,1,.76.47,2.22,2.22,0,0,1,.5.72,2.07,2.07,0,0,1,.18,1.07,1.76,1.76,0,0,1-.43.94,2.79,2.79,0,0,1-1,.7l-.14.06-.17.05-1.53-3.57a2.47,2.47,0,0,0-.95.67,1.95,1.95,0,0,0-.28,2.08,2.76,2.76,0,0,0,.42.7,2.8,2.8,0,0,0,.56.47l-.2.26c-.18-.14-.37-.31-.56-.49A2.89,2.89,0,0,1,367.37,207.37Zm1.8-3,1.4,3.26a2.07,2.07,0,0,0,1.18-1,1.55,1.55,0,0,0,0-1.28,1.79,1.79,0,0,0-.57-.73,1.91,1.91,0,0,0-.89-.36A2.36,2.36,0,0,0,369.17,204.39Z" transform="translate(0 -0.91)"/><path d="M368.76,210.29l.28-.11.66,1.54,5.12-2.16-.51-1.17.22-.09a4.75,4.75,0,0,0,.45.62,3.63,3.63,0,0,0,.43.44l.12.28-5.69,2.4.62,1.45-.28.11Z" transform="translate(0 -0.91)"/><path d="M370.63,214.66l.19-.08c1,.44,1.86.79,2.57,1.06a8.57,8.57,0,0,0,1.8.51,2.41,2.41,0,0,0,1.28-.12,1.68,1.68,0,0,0,.62-.45,1.14,1.14,0,0,0,.29-.68,1.83,1.83,0,0,0-.18-.92,1.89,1.89,0,0,0-.59-.76,2.79,2.79,0,0,0-.87-.46l.09-.32a4,4,0,0,1,1,.53,2.23,2.23,0,0,1,.69.93,2.34,2.34,0,0,1,.21,1,1.54,1.54,0,0,1-.31.85,1.83,1.83,0,0,1-.77.58,2.53,2.53,0,0,1-1.39.14,9,9,0,0,1-1.8-.51c-.68-.26-1.46-.58-2.35-.95.09.17.18.35.26.54s.18.36.25.54l1,2.33-.28.12Z" transform="translate(0 -0.91)"/><path d="M372.69,219.48l.2-.09c1,.45,1.86.8,2.57,1.07a8.92,8.92,0,0,0,1.8.5,2.28,2.28,0,0,0,1.27-.11,1.64,1.64,0,0,0,.63-.45,1.23,1.23,0,0,0,.29-.68,1.81,1.81,0,0,0-.18-.92,1.91,1.91,0,0,0-.59-.76,3,3,0,0,0-.88-.47l.1-.31a3.74,3.74,0,0,1,1,.53,2.26,2.26,0,0,1,.69.92,2.29,2.29,0,0,1,.22,1.06,1.57,1.57,0,0,1-.31.85,1.89,1.89,0,0,1-.77.58,2.55,2.55,0,0,1-1.39.13,9.58,9.58,0,0,1-1.8-.5c-.68-.26-1.46-.58-2.35-1,.08.18.17.36.26.54l.25.55,1,2.33-.28.11Z" transform="translate(0 -0.91)"/><path d="M167.29,537.24l.14-2.21-.93.07,0-.3,1-.06.12-1.79-1,.07,0-.29,1-.07.14-2,.33,0-.14,2,1.72-.12.15-2,.32,0-.14,2,.91-.07,0,.29-.94.07-.11,1.79,1-.07,0,.29-1,.07-.13,2.21-.32,0,.12-2.21-1.72.13-.13,2.21Zm.48-2.53,1.73-.12.12-1.79-1.73.13Z" transform="translate(0 -0.91)"/><path d="M171.57,532.41l0-.26.74-.1,1.61-.11,0,.3Zm1.06,4.45-.43-6a1.89,1.89,0,0,1,.09-.79,1,1,0,0,1,.4-.49,1.28,1.28,0,0,1,.65-.19,1.47,1.47,0,0,1,.36,0l.4.09-.1.29a1.36,1.36,0,0,0-.65-.1.73.73,0,0,0-.64.34,1.42,1.42,0,0,0-.15.86l.43,5.93Z" transform="translate(0 -0.91)"/><path d="M175.3,536.67l0-.3,1.69-.12-.4-5.5-1.28.09,0-.23a7.67,7.67,0,0,0,.75-.22,3.16,3.16,0,0,0,.55-.26l.31,0,.44,6.12,1.58-.12,0,.31Z" transform="translate(0 -0.91)"/><path d="M183.08,536.12l-.34-4.76c0-.14,0-.32,0-.53v-.54h-.05c-.08.14-.16.27-.25.4s-.18.26-.27.41l-2,3,4.24-.3,0,.29-4.73.33v-.17l3.08-4.53H183l.46,6.42Z" transform="translate(0 -0.91)"/><path d="M188.35,535.75,188,531c0-.14,0-.32,0-.54s0-.39,0-.53h0l-.25.39-.27.42-2,3,4.25-.3,0,.29-4.73.34v-.17l3.07-4.53.26,0,.46,6.42Z" transform="translate(0 -0.91)"/><path d="M193,535.53a2.23,2.23,0,0,1-1-.13,1.9,1.9,0,0,1-.76-.54,2.86,2.86,0,0,1-.52-.91,5.1,5.1,0,0,1-.25-1.27,6.31,6.31,0,0,1,.09-1.74,3,3,0,0,1,.49-1.16,2.15,2.15,0,0,1,.78-.67,2.67,2.67,0,0,1,1-.25,1.87,1.87,0,0,1,.84.1,2,2,0,0,1,.64.4l-.22.24a1.35,1.35,0,0,0-.58-.36,1.7,1.7,0,0,0-.68-.08,2,2,0,0,0-1.06.39,2.21,2.21,0,0,0-.72,1.1,5.23,5.23,0,0,0-.16,2,4.67,4.67,0,0,0,.3,1.39,2.13,2.13,0,0,0,.7.92,1.69,1.69,0,0,0,1.12.27,1.3,1.3,0,0,0,.75-.28,1.52,1.52,0,0,0,.49-.65,1.76,1.76,0,0,0,.14-.86,2.15,2.15,0,0,0-.23-.86,1.4,1.4,0,0,0-.56-.57,1.75,1.75,0,0,0-.95-.15,2,2,0,0,0-.88.31,3,3,0,0,0-.9.89l0-.41a3.34,3.34,0,0,1,.52-.54,2.65,2.65,0,0,1,.62-.38,2,2,0,0,1,.67-.17,2.17,2.17,0,0,1,1.08.16,1.46,1.46,0,0,1,.72.62,2.25,2.25,0,0,1,.31,1.07,2,2,0,0,1-.18,1,2.08,2.08,0,0,1-.65.76A1.76,1.76,0,0,1,193,535.53Z" transform="translate(0 -0.91)"/><path d="M195.46,530.71v-.25l.73-.1,1.62-.11,0,.3Zm1.07,4.46-.43-6a1.63,1.63,0,0,1,.09-.79.93.93,0,0,1,.39-.48,1.31,1.31,0,0,1,.65-.2,1.59,1.59,0,0,1,.37,0,1.8,1.8,0,0,1,.39.08l-.09.29a1.71,1.71,0,0,0-.66-.1.75.75,0,0,0-.64.35,1.55,1.55,0,0,0-.15.85l.43,5.93Z" transform="translate(0 -0.91)"/><path d="M383.08,186.51l2.18-.45-.3-.87.27-.1.32.91,1.78-.34-.33-.94.27-.1.34,1,2-.39.1.3-2,.39.57,1.61,2-.38.11.31-2,.39.3.85-.28.1-.31-.88-1.77.35.32.9-.28.1-.34-.95-2.18.46-.11-.3,2.19-.46-.57-1.61-2.19.44Zm2.58-.2.57,1.62,1.77-.36-.57-1.62Z" transform="translate(0 -0.91)"/><path d="M384.84,191.52l5.7-2a2,2,0,0,1,.8-.12,1,1,0,0,1,.57.25,1.38,1.38,0,0,1,.37.57,3.21,3.21,0,0,1,.08.36c0,.13,0,.26,0,.39h-.31a1.41,1.41,0,0,0-.08-.65.71.71,0,0,0-.5-.52,1.51,1.51,0,0,0-.87.08l-5.66,2Zm4.06-2.18.24-.09.29.68.53,1.52-.28.1Z" transform="translate(0 -0.91)"/><path d="M386.24,195.85a2.41,2.41,0,0,1-.12-1.24,2.13,2.13,0,0,1,.54-1.08,2.72,2.72,0,0,1,1.19-.74,2.76,2.76,0,0,1,1.42-.15,2.4,2.4,0,0,1,1.12.54,2.43,2.43,0,0,1,.67,1,2.09,2.09,0,0,1,.13.92,3.08,3.08,0,0,1-.19.74l-.3-.14a2.61,2.61,0,0,0,.17-.68,1.53,1.53,0,0,0-.1-.75,1.82,1.82,0,0,0-.6-.86,2.1,2.1,0,0,0-1-.42,2.59,2.59,0,0,0-1.21.14,2.51,2.51,0,0,0-1,.62,1.89,1.89,0,0,0-.51.91,1.93,1.93,0,0,0,.08,1.08,2,2,0,0,0,.43.72,3.38,3.38,0,0,0,.61.48l-.16.28a3.27,3.27,0,0,1-.68-.57A2.3,2.3,0,0,1,386.24,195.85Z" transform="translate(0 -0.91)"/><path d="M387.77,200.18a2.15,2.15,0,0,1-.11-1.19,2,2,0,0,1,.55-1,3.33,3.33,0,0,1,1.22-.71,2.87,2.87,0,0,1,1.4-.14,2.43,2.43,0,0,1,1.12.53,2.29,2.29,0,0,1,.69,1,2.24,2.24,0,0,1,.14.86,3.88,3.88,0,0,1-.17.88l.85-.33,1.93-.67.12.35-6.92,2.39-.1-.28.59-.26v0a3.59,3.59,0,0,1-.77-.56A2.11,2.11,0,0,1,387.77,200.18Zm.29-.07a2,2,0,0,0,.51.77,3.69,3.69,0,0,0,.87.6l2.82-1a3.1,3.1,0,0,0,.21-.94,2.21,2.21,0,0,0-.12-.81,1.74,1.74,0,0,0-.62-.84,2.09,2.09,0,0,0-1-.4,2.46,2.46,0,0,0-1.16.12,2.93,2.93,0,0,0-1,.59,1.68,1.68,0,0,0-.47,1.88Z" transform="translate(0 -0.91)"/><path d="M389.82,206a2.41,2.41,0,0,1-.12-1.24,2.12,2.12,0,0,1,.53-1.08,3.17,3.17,0,0,1,2.62-.89,2.41,2.41,0,0,1,1.11.54,2.45,2.45,0,0,1,.68,1,1.94,1.94,0,0,1,.12.92,3.65,3.65,0,0,1-.18.74l-.31-.14a2.26,2.26,0,0,0,.17-.68,1.65,1.65,0,0,0-.09-.75,1.91,1.91,0,0,0-.61-.86,2.1,2.1,0,0,0-1-.42,2.42,2.42,0,0,0-1.2.14,2.48,2.48,0,0,0-1,.62,1.89,1.89,0,0,0-.51.91,1.94,1.94,0,0,0,.09,1.08,2,2,0,0,0,.43.72,3.33,3.33,0,0,0,.6.48l-.15.28a3.27,3.27,0,0,1-.68-.57A2,2,0,0,1,389.82,206Z" transform="translate(0 -0.91)"/><path d="M391.74,211.08l4.54-1.58.52-.16.52-.14,0,0-.45-.14-.47-.15L393,207.7l1.4,4-.27.09-1.57-4.44.17-.05,5.21,1.76.08.24-6.13,2.12Z" transform="translate(0 -0.91)"/><path d="M392.65,213.66l.29-.1.55,1.59,5.25-1.82-.42-1.2.23-.08a6.37,6.37,0,0,0,.4.66,3.72,3.72,0,0,0,.4.45l.1.3-5.84,2,.52,1.48-.29.1Z" transform="translate(0 -0.91)"/><path d="M165.89,501.71l.4-2.18-.93,0,0-.29,1,.05.34-1.76-1-.05v-.3l1,.05.38-2h.33l-.38,2,1.72.08.39-2h.32l-.38,2,.91,0v.3l-.94,0-.33,1.76,1,.05,0,.29-1-.05-.39,2.18-.32,0,.39-2.18-1.72-.08-.41,2.18Zm.78-2.45,1.73.08.33-1.76L167,497.5Z" transform="translate(0 -0.91)"/><path d="M173.15,502.18a2.48,2.48,0,0,1-1.2-.36,2.23,2.23,0,0,1-.85-.9,2.61,2.61,0,0,1-.26-1.37,2.89,2.89,0,0,1,.24-1.05,2.4,2.4,0,0,1,.55-.77,2.28,2.28,0,0,1,.77-.47,2.1,2.1,0,0,1,.86-.13,2.2,2.2,0,0,1,1.06.3,1.77,1.77,0,0,1,.66.79,2.73,2.73,0,0,1,.19,1.22c0,.05,0,.1,0,.15a.67.67,0,0,1,0,.18l-3.91-.19a2.37,2.37,0,0,0,.21,1.14,1.94,1.94,0,0,0,.68.82,2,2,0,0,0,1.08.34,2.38,2.38,0,0,0,.82-.08,2.67,2.67,0,0,0,.67-.29l.15.3a5.12,5.12,0,0,1-.7.27A2.59,2.59,0,0,1,173.15,502.18Zm-1.91-2.9,3.57.17a2.11,2.11,0,0,0-.38-1.48,1.55,1.55,0,0,0-1.18-.54,1.7,1.7,0,0,0-.91.19,2,2,0,0,0-.72.63A2.43,2.43,0,0,0,171.24,499.28Z" transform="translate(0 -0.91)"/><path d="M177.59,502.28a14.68,14.68,0,0,1,.28-1.81,8.94,8.94,0,0,1,.48-1.54,8.84,8.84,0,0,1,.72-1.36,11.4,11.4,0,0,1,1-1.31l-3.82-.19v-.3l4.32.21v.19a11.27,11.27,0,0,0-1.13,1.45,7.47,7.47,0,0,0-.75,1.42,10.3,10.3,0,0,0-.44,1.52,16.15,16.15,0,0,0-.25,1.74Z" transform="translate(0 -0.91)"/><path d="M183.37,502.68a1.66,1.66,0,0,1-1.11-.45,2.46,2.46,0,0,1-.66-1.18,6.32,6.32,0,0,1-.15-1.83,6.15,6.15,0,0,1,.33-1.79,2.33,2.33,0,0,1,.77-1.09,1.72,1.72,0,0,1,1.15-.33,1.68,1.68,0,0,1,1.11.44,2.3,2.3,0,0,1,.65,1.16,5.63,5.63,0,0,1,.15,1.82,6,6,0,0,1-.32,1.8,2.45,2.45,0,0,1-.77,1.11A1.67,1.67,0,0,1,183.37,502.68Zm0-.3a1.35,1.35,0,0,0,.92-.31,2.32,2.32,0,0,0,.64-1,6.71,6.71,0,0,0,.16-3.33,2.18,2.18,0,0,0-.54-1,1.34,1.34,0,0,0-.88-.39,1.33,1.33,0,0,0-.92.3,2.17,2.17,0,0,0-.65,1,5.62,5.62,0,0,0-.29,1.65,5.41,5.41,0,0,0,.13,1.68,2.26,2.26,0,0,0,.54,1.06A1.31,1.31,0,0,0,183.39,502.38Z" transform="translate(0 -0.91)"/><path d="M186.61,498.19v-.25h.74L189,498v.31Zm.51,4.55.3-6a1.87,1.87,0,0,1,.18-.78,1,1,0,0,1,.45-.43,1.41,1.41,0,0,1,.67-.12,1.13,1.13,0,0,1,.36.06,2.43,2.43,0,0,1,.38.13l-.12.28a1.55,1.55,0,0,0-.64-.18.75.75,0,0,0-.68.27,1.46,1.46,0,0,0-.25.83l-.29,5.94Z" transform="translate(0 -0.91)"/><path d="M192.31,503l.23-4.77c0-.14,0-.32,0-.53a4.62,4.62,0,0,1,.07-.53h-.06a3.51,3.51,0,0,1-.29.36c-.11.12-.21.25-.32.38l-2.37,2.71,4.26.2,0,.3-4.74-.23v-.18l3.61-4.12H193l-.32,6.43Z" transform="translate(0 -0.91)"/><path d="M196.24,503.18a14.68,14.68,0,0,1,.28-1.81,8.94,8.94,0,0,1,.48-1.54,8.84,8.84,0,0,1,.72-1.36,10.48,10.48,0,0,1,1-1.31L194.9,497v-.3l4.32.21v.19a12.38,12.38,0,0,0-1.14,1.45,8.38,8.38,0,0,0-.74,1.42,9.21,9.21,0,0,0-.44,1.52,16.15,16.15,0,0,0-.25,1.74Z" transform="translate(0 -0.91)"/><path d="M169.2,462.39l.67-2.11-.92-.16.05-.29,1,.17.55-1.71-1-.17.06-.28,1,.17.63-1.91.32.06-.63,1.9,1.7.3.63-1.91.32.06-.62,1.9.9.16-.05.29-.93-.16-.54,1.7.94.17-.05.28-1-.17-.66,2.12-.32-.06.65-2.11-1.69-.29-.67,2.11Zm1.08-2.34,1.71.3.54-1.71-1.71-.29Z" transform="translate(0 -0.91)"/><path d="M174.47,463.3l1-5.9a1.71,1.71,0,0,1,.28-.75.94.94,0,0,1,.49-.37,1.43,1.43,0,0,1,.69,0,1.69,1.69,0,0,1,.35.1l.36.18-.16.26a1.5,1.5,0,0,0-.62-.25.73.73,0,0,0-.7.18,1.49,1.49,0,0,0-.35.79l-1,5.86Zm.05-4.58,0-.25.74.08,1.59.28-.05.29Z" transform="translate(0 -0.91)"/><path d="M178.79,464.16a2.69,2.69,0,0,1-1.1-.42A2,2,0,0,1,177,463a1.51,1.51,0,0,1-.12-.94,1.53,1.53,0,0,1,.35-.75,2.57,2.57,0,0,1,.66-.52,3.19,3.19,0,0,1,.73-.31v0a2.71,2.71,0,0,1-.59-.7,1.33,1.33,0,0,1-.17-.92,1.42,1.42,0,0,1,.38-.75,1.77,1.77,0,0,1,.74-.43,2.11,2.11,0,0,1,.94,0,2.29,2.29,0,0,1,1,.39,1.61,1.61,0,0,1,.53.69,1.72,1.72,0,0,1,.07.88,1.47,1.47,0,0,1-.29.65,2.57,2.57,0,0,1-.5.49,3.41,3.41,0,0,1-.5.32v0a5.79,5.79,0,0,1,.51.48,2.05,2.05,0,0,1,.38.59,1.47,1.47,0,0,1,0,.76,1.41,1.41,0,0,1-.41.78,1.84,1.84,0,0,1-.83.47A2.7,2.7,0,0,1,178.79,464.16Zm.05-.3a2,2,0,0,0,.95,0,1.39,1.39,0,0,0,.67-.38,1.25,1.25,0,0,0,.26-1.34,1.83,1.83,0,0,0-.42-.55,4.29,4.29,0,0,0-.66-.47c-.25-.15-.5-.3-.76-.44a3.42,3.42,0,0,0-1.08.54,1.42,1.42,0,0,0-.55.91,1.25,1.25,0,0,0,.11.76,1.7,1.7,0,0,0,.56.64A2.27,2.27,0,0,0,178.84,463.86Zm1.07-3a3.19,3.19,0,0,0,.85-.6,1.47,1.47,0,0,0,.4-.78,1.34,1.34,0,0,0-.06-.69,1.22,1.22,0,0,0-.43-.58,1.64,1.64,0,0,0-.78-.34,1.53,1.53,0,0,0-1.09.18,1.19,1.19,0,0,0-.55.81,1.12,1.12,0,0,0,.16.83,2.33,2.33,0,0,0,.65.64C179.33,460.51,179.62,460.69,179.91,460.86Z" transform="translate(0 -0.91)"/><path d="M183.81,465a3.58,3.58,0,0,1-.94-.3,2.88,2.88,0,0,1-.64-.44,4.9,4.9,0,0,1-.45-.49l.28-.2a3.38,3.38,0,0,0,.4.46,2.6,2.6,0,0,0,.58.41,3,3,0,0,0,.84.26,1.87,1.87,0,0,0,.94-.07,1.74,1.74,0,0,0,.77-.51,1.79,1.79,0,0,0,.41-.89,1.63,1.63,0,0,0-.26-1.34,1.83,1.83,0,0,0-1.22-.68,1.79,1.79,0,0,0-.73,0,4.37,4.37,0,0,0-.68.2l-.27-.21.77-2.89,3.17.54-.05.3-2.84-.49-.66,2.37a3.5,3.5,0,0,1,.64-.15,2.29,2.29,0,0,1,.73,0,2.71,2.71,0,0,1,1.05.4,1.72,1.72,0,0,1,.65.78,2.1,2.1,0,0,1,.09,1.19,2,2,0,0,1-.53,1.08,2.08,2.08,0,0,1-1,.57A2.42,2.42,0,0,1,183.81,465Z" transform="translate(0 -0.91)"/><path d="M188.73,465.87a2,2,0,0,1-.73-.26,1.16,1.16,0,0,1-.57-1.29,1.33,1.33,0,0,1,1-1.06,8.28,8.28,0,0,1,2.71-.14,2.51,2.51,0,0,0,.06-.77,1.2,1.2,0,0,0-.27-.67,1.25,1.25,0,0,0-.78-.38,2.46,2.46,0,0,0-1.05,0,4.27,4.27,0,0,0-.77.26l-.14-.29a3.44,3.44,0,0,1,.5-.18,4.25,4.25,0,0,1,.71-.14,2.86,2.86,0,0,1,.82,0,1.68,1.68,0,0,1,.93.42,1.29,1.29,0,0,1,.38.74,2.54,2.54,0,0,1,0,.91l-.54,3.07-.3-.05.06-.64h0a5.58,5.58,0,0,1-1,.37A2.33,2.33,0,0,1,188.73,465.87Zm.08-.29a2.19,2.19,0,0,0,.95-.05,4.74,4.74,0,0,0,1.08-.43l.29-1.7a9.49,9.49,0,0,0-1.86,0,2.31,2.31,0,0,0-1.05.33.94.94,0,0,0-.41.65.83.83,0,0,0,.21.83A1.57,1.57,0,0,0,188.81,465.58Z" transform="translate(0 -0.91)"/><path d="M194,466.66a16.27,16.27,0,0,1,.5-1.76,9.92,9.92,0,0,1,.67-1.47,8.44,8.44,0,0,1,.89-1.26,10.69,10.69,0,0,1,1.16-1.18l-3.78-.65,0-.3,4.26.73,0,.19a11.38,11.38,0,0,0-1.3,1.3,8.42,8.42,0,0,0-.91,1.32,8.69,8.69,0,0,0-.63,1.46,15.76,15.76,0,0,0-.46,1.69Z" transform="translate(0 -0.91)"/><path d="M199.28,467.69a2.2,2.2,0,0,1-.73-.27,1.29,1.29,0,0,1,.48-2.34,8,8,0,0,1,2.71-.14,2.53,2.53,0,0,0,.06-.77,1.17,1.17,0,0,0-.27-.67,1.21,1.21,0,0,0-.79-.39,2.41,2.41,0,0,0-1,0,4.8,4.8,0,0,0-.78.25l-.13-.29c.13-.05.29-.11.5-.17a3.33,3.33,0,0,1,.7-.14,2.85,2.85,0,0,1,.82,0,1.68,1.68,0,0,1,.93.41,1.34,1.34,0,0,1,.39.74,2.59,2.59,0,0,1,0,.92l-.54,3.07-.3,0,.06-.64h0a4.33,4.33,0,0,1-1,.37A2.37,2.37,0,0,1,199.28,467.69Zm.09-.3a2.19,2.19,0,0,0,.95,0,5.19,5.19,0,0,0,1.07-.43l.3-1.71a10.47,10.47,0,0,0-1.87,0,2.4,2.4,0,0,0-1,.33,1,1,0,0,0-.41.65.87.87,0,0,0,.22.84A1.42,1.42,0,0,0,199.37,467.39Z" transform="translate(0 -0.91)"/><path d="M174.68,419.18l.94-2-.89-.28.09-.28.93.29.77-1.61-1-.3.09-.28,1,.3.87-1.81.31.1-.87,1.81,1.64.51.88-1.81.31.1-.87,1.81.87.27-.08.28-.9-.28-.77,1.62.92.28-.09.28-1-.3-.93,2-.31-.09.93-2-1.64-.51-.94,2Zm1.38-2.18,1.65.51.77-1.62-1.66-.51Z" transform="translate(0 -0.91)"/><path d="M181.59,421.44a2.38,2.38,0,0,1-1.08-.65,2.21,2.21,0,0,1-.59-1.08,2.68,2.68,0,0,1,.09-1.39,2.76,2.76,0,0,1,.5-.95,2.55,2.55,0,0,1,.74-.62,2.38,2.38,0,0,1,.86-.26,2.29,2.29,0,0,1,1.81.65,1.76,1.76,0,0,1,.44.92,2.57,2.57,0,0,1-.13,1.23s0,.1,0,.15a.79.79,0,0,1-.08.16l-3.73-1.16a2.33,2.33,0,0,0-.09,1.16,1.86,1.86,0,0,0,.45,1,2,2,0,0,0,1,.6,2.73,2.73,0,0,0,.81.13,2.85,2.85,0,0,0,.72-.11l.07.32a7.14,7.14,0,0,1-.74.09A2.64,2.64,0,0,1,181.59,421.44Zm-1.12-3.28,3.41,1.06a2.08,2.08,0,0,0,0-1.54,1.6,1.6,0,0,0-1-.82,1.91,1.91,0,0,0-.92,0,2,2,0,0,0-.86.44A2.34,2.34,0,0,0,180.47,418.16Z" transform="translate(0 -0.91)"/><path d="M185.85,422.64a16.89,16.89,0,0,1,.73-1.68,9.56,9.56,0,0,1,.86-1.36,8.14,8.14,0,0,1,1.05-1.15,9.92,9.92,0,0,1,1.3-1l-3.66-1.14.09-.29,4.12,1.28-.05.18a12.51,12.51,0,0,0-1.47,1.12,7.94,7.94,0,0,0-1.07,1.2,8.77,8.77,0,0,0-.82,1.36,14.45,14.45,0,0,0-.68,1.61Z" transform="translate(0 -0.91)"/><path d="M191.35,424.47a1.69,1.69,0,0,1-1-.71,2.52,2.52,0,0,1-.33-1.3,6,6,0,0,1,.32-1.81,5.77,5.77,0,0,1,.77-1.65,2.49,2.49,0,0,1,1-.87,1.76,1.76,0,0,1,1.2,0,1.69,1.69,0,0,1,1,.71,2.27,2.27,0,0,1,.33,1.28,5.52,5.52,0,0,1-.32,1.79,5.91,5.91,0,0,1-.77,1.67,2.33,2.33,0,0,1-1,.88A1.7,1.7,0,0,1,191.35,424.47Zm.09-.29a1.31,1.31,0,0,0,1-.06,2.23,2.23,0,0,0,.87-.82,5.76,5.76,0,0,0,.71-1.53,5.57,5.57,0,0,0,.3-1.65A2.14,2.14,0,0,0,194,419a1.3,1.3,0,0,0-.76-.6,1.33,1.33,0,0,0-1,.06,2.23,2.23,0,0,0-.88.79,5.76,5.76,0,0,0-.7,1.53,5.57,5.57,0,0,0-.3,1.66,2.15,2.15,0,0,0,.26,1.16A1.25,1.25,0,0,0,191.44,424.18Z" transform="translate(0 -0.91)"/><path d="M196.39,426a1.71,1.71,0,0,1-1-.72,2.52,2.52,0,0,1-.33-1.3,6,6,0,0,1,.32-1.81,5.51,5.51,0,0,1,.78-1.65,2.37,2.37,0,0,1,1-.86,1.65,1.65,0,0,1,1.2,0,1.68,1.68,0,0,1,1,.7,2.3,2.3,0,0,1,.33,1.28,5.62,5.62,0,0,1-.32,1.8,6,6,0,0,1-.77,1.66,2.42,2.42,0,0,1-1,.89A1.76,1.76,0,0,1,196.39,426Zm.09-.29a1.31,1.31,0,0,0,1-.07,2.27,2.27,0,0,0,.87-.81,5.76,5.76,0,0,0,.71-1.53,5.68,5.68,0,0,0,.3-1.66,2.14,2.14,0,0,0-.26-1.14,1.32,1.32,0,0,0-.76-.59,1.23,1.23,0,0,0-1,.06,2.15,2.15,0,0,0-.88.79,5.48,5.48,0,0,0-.7,1.53,5.57,5.57,0,0,0-.3,1.65,2.12,2.12,0,0,0,.26,1.16A1.23,1.23,0,0,0,196.48,425.75Z" transform="translate(0 -0.91)"/><path d="M201.35,427.58a3.21,3.21,0,0,1-.89-.43,2.83,2.83,0,0,1-.59-.54,4.15,4.15,0,0,1-.37-.56l.29-.16a4.42,4.42,0,0,0,.58.79,2.52,2.52,0,0,0,1.09.61,2.12,2.12,0,0,0,.92.09,1.5,1.5,0,0,0,.74-.32,1.32,1.32,0,0,0,.45-.68,1.3,1.3,0,0,0,0-.85,1.73,1.73,0,0,0-.62-.76,4.53,4.53,0,0,0-1.34-.63l.09-.3a3.67,3.67,0,0,0,1.35.21,1.45,1.45,0,0,0,.84-.29,1.28,1.28,0,0,0,.43-.64,1.11,1.11,0,0,0-.11-1,1.63,1.63,0,0,0-.94-.65,2.24,2.24,0,0,0-1-.08,2.5,2.5,0,0,0-.85.28l-.15-.29a4,4,0,0,1,.94-.29,2.36,2.36,0,0,1,1.1.1,2.56,2.56,0,0,1,.87.45,1.6,1.6,0,0,1,.49.7,1.37,1.37,0,0,1,0,.87,1.4,1.4,0,0,1-.69.87,2.22,2.22,0,0,1-1.12.25v0a2.44,2.44,0,0,1,.69.53,1.83,1.83,0,0,1,.41.73,1.51,1.51,0,0,1,0,.84,1.6,1.6,0,0,1-.56.83,1.83,1.83,0,0,1-.92.37A2.53,2.53,0,0,1,201.35,427.58Z" transform="translate(0 -0.91)"/><path d="M206.39,429.14a3,3,0,0,1-.89-.42,2.61,2.61,0,0,1-.59-.55,4.15,4.15,0,0,1-.37-.56l.29-.15a4.37,4.37,0,0,0,.58.78,2.52,2.52,0,0,0,1.09.62,2,2,0,0,0,.92.08,1.49,1.49,0,0,0,.74-.31,1.41,1.41,0,0,0,.45-.68,1.33,1.33,0,0,0,0-.86,1.79,1.79,0,0,0-.62-.76,4.54,4.54,0,0,0-1.34-.62l.09-.31a3.67,3.67,0,0,0,1.35.21,1.38,1.38,0,0,0,.84-.29,1.28,1.28,0,0,0,.43-.64,1.11,1.11,0,0,0-.11-1,1.68,1.68,0,0,0-.94-.65,2.09,2.09,0,0,0-1-.07,2.5,2.5,0,0,0-.85.27l-.15-.29a3.5,3.5,0,0,1,.95-.28,2.31,2.31,0,0,1,1.09.09,2.58,2.58,0,0,1,.87.46,1.6,1.6,0,0,1,.49.7,1.33,1.33,0,0,1,0,.86,1.39,1.39,0,0,1-.69.88,2.46,2.46,0,0,1-1.12.25v0a2.3,2.3,0,0,1,.69.54,1.73,1.73,0,0,1,.41.72,1.51,1.51,0,0,1,0,.84,1.63,1.63,0,0,1-.56.84,1.93,1.93,0,0,1-.92.37A2.7,2.7,0,0,1,206.39,429.14Z" transform="translate(0 -0.91)"/><path d="M189.33,372l1.21-1.86-.84-.4.12-.26.88.41,1-1.5-.91-.42.13-.27.92.44L193,366.5l.29.13-1.11,1.68,1.55.73,1.13-1.67.29.14L194,369.18l.82.39-.13.26-.85-.4-1,1.5.87.41-.13.26-.92-.43-1.2,1.87-.29-.14,1.2-1.86-1.56-.74-1.21,1.86Zm1.67-2,1.56.73,1-1.5-1.57-.73Z" transform="translate(0 -0.91)"/><path d="M195.81,375.2a2.49,2.49,0,0,1-1-.79,2.15,2.15,0,0,1-.4-1.14,2.7,2.7,0,0,1,.3-1.36,2.64,2.64,0,0,1,.9-1.1,2.21,2.21,0,0,1,1.17-.41,2.48,2.48,0,0,1,1.2.23,2.16,2.16,0,0,1,.75.56,2.72,2.72,0,0,1,.4.65l-.31.12a2.7,2.7,0,0,0-.37-.6,1.64,1.64,0,0,0-.6-.45,1.92,1.92,0,0,0-1.05-.18,2,2,0,0,0-1,.4,2.45,2.45,0,0,0-.75.94,2.55,2.55,0,0,0-.27,1.16,1.92,1.92,0,0,0,.3,1,2,2,0,0,0,.84.7,2,2,0,0,0,.81.2,3.13,3.13,0,0,0,.77-.09l.09.3a3.13,3.13,0,0,1-.88.09A2.45,2.45,0,0,1,195.81,375.2Z" transform="translate(0 -0.91)"/><path d="M200,377.17a1.7,1.7,0,0,1-.85-.84A2.38,2.38,0,0,1,199,375a5.91,5.91,0,0,1,.57-1.75,5.63,5.63,0,0,1,1-1.53,2.36,2.36,0,0,1,1.13-.72,1.88,1.88,0,0,1,2.05,1,2.35,2.35,0,0,1,.15,1.32,6,6,0,0,1-.57,1.74,6.12,6.12,0,0,1-1,1.54,2.36,2.36,0,0,1-1.13.73A1.69,1.69,0,0,1,200,377.17Zm.14-.27a1.33,1.33,0,0,0,1,.06,2.21,2.21,0,0,0,1-.68,5.52,5.52,0,0,0,.91-1.42,5.79,5.79,0,0,0,.54-1.6,2.31,2.31,0,0,0-.1-1.17,1.36,1.36,0,0,0-.67-.69,1.28,1.28,0,0,0-1-.07,2.3,2.3,0,0,0-1,.66,5.62,5.62,0,0,0-.91,1.42,5.53,5.53,0,0,0-.53,1.6,2.29,2.29,0,0,0,.09,1.19A1.28,1.28,0,0,0,200.14,376.9Z" transform="translate(0 -0.91)"/><path d="M203.31,378.59l.13-.28L205,379l2.38-5-1.16-.55.1-.21a5,5,0,0,0,.76.17,3.48,3.48,0,0,0,.61.05l.28.13-2.65,5.54,1.43.67-.13.28Z" transform="translate(0 -0.91)"/><path d="M210.35,381.89l2.07-4.31.24-.48.26-.47,0,0a4.23,4.23,0,0,1-.42.22l-.44.23-3.23,1.6,3.85,1.81-.13.26-4.28-2,.07-.16,4.92-2.44.23.11L210.67,382Z" transform="translate(0 -0.91)"/><path d="M214.25,383.85a3.14,3.14,0,0,1-.83-.54,2.57,2.57,0,0,1-.5-.62,4.08,4.08,0,0,1-.29-.6l.31-.12a3.87,3.87,0,0,0,.47.86,2.36,2.36,0,0,0,1,.76,2.14,2.14,0,0,0,.89.21,1.47,1.47,0,0,0,.78-.21,1.4,1.4,0,0,0,.54-.61,1.26,1.26,0,0,0,.11-.85,1.66,1.66,0,0,0-.51-.84,4.43,4.43,0,0,0-1.24-.8l.14-.29a4,4,0,0,0,1.31.4,1.48,1.48,0,0,0,.87-.18,1.28,1.28,0,0,0,.51-.57,1.1,1.1,0,0,0,0-1,1.6,1.6,0,0,0-.84-.77,2.18,2.18,0,0,0-.93-.21,2.65,2.65,0,0,0-.88.16l-.12-.31a3.86,3.86,0,0,1,1-.15,2.47,2.47,0,0,1,1.08.24,2.42,2.42,0,0,1,.78.57,1.6,1.6,0,0,1,.4.76,1.39,1.39,0,0,1-.13.86,1.42,1.42,0,0,1-.81.77,2.42,2.42,0,0,1-1.14.09l0,0a2.25,2.25,0,0,1,.61.62,1.75,1.75,0,0,1,.3.77,1.44,1.44,0,0,1-.14.83,1.65,1.65,0,0,1-.67.75,1.77,1.77,0,0,1-1,.24A2.44,2.44,0,0,1,214.25,383.85Z" transform="translate(0 -0.91)"/><path d="M219.41,386.27a2.54,2.54,0,0,1-1-.78,2.15,2.15,0,0,1-.4-1.14,2.7,2.7,0,0,1,.3-1.36,2.82,2.82,0,0,1,.9-1.11,2.36,2.36,0,0,1,1.17-.41,2.49,2.49,0,0,1,1.2.24,2.18,2.18,0,0,1,.76.56,3,3,0,0,1,.39.65l-.31.11a2.43,2.43,0,0,0-.37-.59,1.66,1.66,0,0,0-.6-.46,1.92,1.92,0,0,0-1.05-.18,2.14,2.14,0,0,0-1,.41,2.37,2.37,0,0,0-.75.94,2.51,2.51,0,0,0-.27,1.15,1.93,1.93,0,0,0,.3,1,2,2,0,0,0,.84.7,2,2,0,0,0,.81.19,2.46,2.46,0,0,0,.78-.09l.08.31a3.56,3.56,0,0,1-.88.08A2.13,2.13,0,0,1,219.41,386.27Z" transform="translate(0 -0.91)"/><path d="M212.21,327.86l1.46-1.68-.78-.5.16-.25.82.53,1.19-1.35-.84-.54.16-.25.86.56,1.33-1.51.27.18-1.33,1.5,1.44.94,1.34-1.5.27.17-1.33,1.51.76.49-.16.25-.79-.51-1.18,1.35.81.52-.16.25-.85-.55-1.45,1.68-.27-.17,1.45-1.69-1.45-.93L212.49,328Zm1.93-1.72,1.45.94,1.18-1.36-1.45-.94Z" transform="translate(0 -0.91)"/><path d="M217.45,331.39a1.92,1.92,0,0,1-.61-.59,2.12,2.12,0,0,1-.27-.7l.33-.07a1.59,1.59,0,0,0,.24.65,1.83,1.83,0,0,0,.49.47,2,2,0,0,0,1.08.32A2.23,2.23,0,0,0,220,331a5.21,5.21,0,0,0,1.36-1.5,4.78,4.78,0,0,0,.61-1.28,2.08,2.08,0,0,0,0-1.16,1.62,1.62,0,0,0-.73-.89,1.3,1.3,0,0,0-.76-.22,1.6,1.6,0,0,0-.79.22,1.77,1.77,0,0,0-.64.61,2.16,2.16,0,0,0-.34.81,1.3,1.3,0,0,0,.1.8,1.75,1.75,0,0,0,.65.69,2,2,0,0,0,.89.27,3,3,0,0,0,1.26-.18l-.22.36a3.16,3.16,0,0,1-.75.11,2.45,2.45,0,0,1-.72-.07,1.9,1.9,0,0,1-.64-.27,2.14,2.14,0,0,1-.76-.77,1.56,1.56,0,0,1-.2-.93,2.37,2.37,0,0,1,.41-1,2.06,2.06,0,0,1,.78-.72,2,2,0,0,1,1-.21,1.77,1.77,0,0,1,.93.3,2.2,2.2,0,0,1,.7.69,1.89,1.89,0,0,1,.27.88,2.61,2.61,0,0,1-.14,1,4.6,4.6,0,0,1-.58,1.15,5.84,5.84,0,0,1-1.13,1.34,3.2,3.2,0,0,1-1.1.63,2.32,2.32,0,0,1-1,.06A2.5,2.5,0,0,1,217.45,331.39Z" transform="translate(0 -0.91)"/><path d="M222.68,334.78a2.4,2.4,0,0,1-.58-.57,3.53,3.53,0,0,1-.44-.81l0,0-.31.38-.25-.16,4-6.08.31.2-1.18,1.79-.56.79a5.39,5.39,0,0,1,1.06,0,2.35,2.35,0,0,1,.95.34,2.07,2.07,0,0,1,.84.91,1.86,1.86,0,0,1,.12,1.1,3.21,3.21,0,0,1-.52,1.21,2.73,2.73,0,0,1-1,1,2.29,2.29,0,0,1-2.37-.1Zm.19-.24a1.73,1.73,0,0,0,1,.3,2,2,0,0,0,1-.3,2.85,2.85,0,0,0,.87-.86,3.29,3.29,0,0,0,.46-1,1.61,1.61,0,0,0-.05-1,1.82,1.82,0,0,0-.72-.81,2.24,2.24,0,0,0-.85-.29,5.41,5.41,0,0,0-1.14,0l-1.64,2.49a2.8,2.8,0,0,0,.48.91A2.43,2.43,0,0,0,222.87,334.54Z" transform="translate(0 -0.91)"/><path d="M225.61,336.53l.11-.17q1.64-.28,2.73-.54a8.49,8.49,0,0,0,1.78-.57,2.29,2.29,0,0,0,1-.8,1.67,1.67,0,0,0,.27-.72,1.24,1.24,0,0,0-.14-.72,1.94,1.94,0,0,0-.67-.67,1.83,1.83,0,0,0-.92-.3,3,3,0,0,0-1,.09l-.09-.31a4,4,0,0,1,1.09-.09,2.19,2.19,0,0,1,1.1.39,2.16,2.16,0,0,1,.77.76,1.61,1.61,0,0,1,.22.87,1.82,1.82,0,0,1-.32.91,2.54,2.54,0,0,1-1.07.87,8.45,8.45,0,0,1-1.78.58c-.71.16-1.54.32-2.49.5l.52.3.51.32,2.14,1.38-.17.26Z" transform="translate(0 -0.91)"/><path d="M232.55,341l2.63-4,.31-.44.33-.43,0,0-.44.17-.46.16-3.43,1.15,3.57,2.31-.16.25-4-2.58.09-.14,5.22-1.76.21.14-3.55,5.39Z" transform="translate(0 -0.91)"/><path d="M236.14,343.49a3.49,3.49,0,0,1-.75-.64,3.32,3.32,0,0,1-.41-.68,5.91,5.91,0,0,1-.21-.64l.33-.08a4.15,4.15,0,0,0,.34.92,2.54,2.54,0,0,0,.88.88,2,2,0,0,0,.86.33,1.53,1.53,0,0,0,.8-.1,1.45,1.45,0,0,0,.62-.54,1.3,1.3,0,0,0,.23-.82,1.68,1.68,0,0,0-.39-.9,4.45,4.45,0,0,0-1.12-1l.17-.27a3.77,3.77,0,0,0,1.24.57,1.44,1.44,0,0,0,.89-.06,1.31,1.31,0,0,0,.59-.5,1.12,1.12,0,0,0,.16-1,1.62,1.62,0,0,0-.72-.88,2.14,2.14,0,0,0-.9-.33,2.62,2.62,0,0,0-.89,0l-.07-.31a3.55,3.55,0,0,1,1,0,2.32,2.32,0,0,1,1,.38,2.65,2.65,0,0,1,.7.67,1.6,1.6,0,0,1,.29.81,1.39,1.39,0,0,1-.25.83,1.45,1.45,0,0,1-.91.66,2.34,2.34,0,0,1-1.14-.07l0,0a2.37,2.37,0,0,1,.52.7,1.77,1.77,0,0,1,.19.8,1.47,1.47,0,0,1-.26.81,1.61,1.61,0,0,1-.77.65,1.89,1.89,0,0,1-1,.11A2.6,2.6,0,0,1,236.14,343.49Z" transform="translate(0 -0.91)"/><path d="M241,346.61a2.49,2.49,0,0,1-.86-.91,2.27,2.27,0,0,1-.27-1.21,2.71,2.71,0,0,1,.47-1.31,2.8,2.8,0,0,1,.75-.78,2.43,2.43,0,0,1,.87-.39,2.11,2.11,0,0,1,.9,0,2.16,2.16,0,0,1,.81.31,2.14,2.14,0,0,1,.76.8,1.79,1.79,0,0,1,.17,1,2.7,2.7,0,0,1-.47,1.15l-.08.12a1.34,1.34,0,0,1-.11.14l-3.28-2.12a2.48,2.48,0,0,0-.41,1.09,2,2,0,0,0,.18,1.05,1.92,1.92,0,0,0,.75.83,2.47,2.47,0,0,0,.75.34,3,3,0,0,0,.73.09l0,.33a7.38,7.38,0,0,1-.74-.11A2.7,2.7,0,0,1,241,346.61Zm-.17-3.46,3,1.94a2.06,2.06,0,0,0,.43-1.47,1.58,1.58,0,0,0-.74-1.06,1.74,1.74,0,0,0-.88-.29,2,2,0,0,0-.94.18A2.44,2.44,0,0,0,240.79,343.15Z" transform="translate(0 -0.91)"/><path d="M237.63,292.39l1.67-1.48-.71-.6.19-.22.74.62,1.36-1.18-.77-.65.2-.22.77.66L242.6,288l.25.21-1.52,1.32,1.31,1.11,1.52-1.31.25.21-1.52,1.32.69.59-.19.22-.71-.61-1.35,1.19.73.62-.19.22-.77-.65-1.66,1.48-.25-.21,1.66-1.48-1.31-1.11-1.66,1.48Zm2.13-1.47,1.32,1.12,1.35-1.19-1.32-1.11Z" transform="translate(0 -0.91)"/><path d="M243,297.14a2.45,2.45,0,0,1-.73-1,2.08,2.08,0,0,1-.09-1.21,2.76,2.76,0,0,1,.66-1.23,2.65,2.65,0,0,1,1.16-.83,2.17,2.17,0,0,1,1.23-.09,2.32,2.32,0,0,1,1.1.54,2,2,0,0,1,.58.73,3.9,3.9,0,0,1,.21.73l-.33,0a2.71,2.71,0,0,0-.2-.67,1.69,1.69,0,0,0-.46-.59,1.85,1.85,0,0,0-1-.45,2.09,2.09,0,0,0-1.07.13,2.44,2.44,0,0,0-1,.72,2.5,2.5,0,0,0-.57,1,1.93,1.93,0,0,0,0,1,2,2,0,0,0,.63.9,2,2,0,0,0,.73.4,3,3,0,0,0,.77.11v.32a3.94,3.94,0,0,1-.87-.14A2.35,2.35,0,0,1,243,297.14Z" transform="translate(0 -0.91)"/><path d="M246.69,300.24a2.45,2.45,0,0,1-.73-1,2.08,2.08,0,0,1-.09-1.21,2.84,2.84,0,0,1,.65-1.23,2.76,2.76,0,0,1,1.16-.83,2.2,2.2,0,0,1,1.24-.09,2.37,2.37,0,0,1,1.1.54,2,2,0,0,1,.57.73,3.32,3.32,0,0,1,.22.73l-.34,0a2.32,2.32,0,0,0-.19-.67,1.69,1.69,0,0,0-.46-.59,1.85,1.85,0,0,0-1-.45,2.09,2.09,0,0,0-1.07.13,2.44,2.44,0,0,0-1,.72,2.5,2.5,0,0,0-.57,1,1.93,1.93,0,0,0,0,1,2.12,2.12,0,0,0,1.36,1.3,3,3,0,0,0,.77.11v.32a3.84,3.84,0,0,1-.87-.14A2.35,2.35,0,0,1,246.69,300.24Z" transform="translate(0 -0.91)"/><path d="M250.21,303.23a1.67,1.67,0,0,1-.6-1,2.47,2.47,0,0,1,.21-1.32,6.93,6.93,0,0,1,2.39-2.76,2.34,2.34,0,0,1,1.27-.39,1.69,1.69,0,0,1,1.12.44,1.71,1.71,0,0,1,.61,1,2.35,2.35,0,0,1-.21,1.31,6.87,6.87,0,0,1-2.38,2.75,2.45,2.45,0,0,1-1.29.42A1.71,1.71,0,0,1,250.21,303.23Zm.2-.22a1.32,1.32,0,0,0,.92.31,2.34,2.34,0,0,0,1.13-.4,6,6,0,0,0,1.25-1.13,5.83,5.83,0,0,0,.94-1.41,2.08,2.08,0,0,0,.21-1.15,1.23,1.23,0,0,0-.46-.84,1.3,1.3,0,0,0-.91-.32,2.3,2.3,0,0,0-1.12.38,5.72,5.72,0,0,0-1.25,1.13,5.47,5.47,0,0,0-.94,1.41,2.26,2.26,0,0,0-.22,1.17A1.3,1.3,0,0,0,250.41,303Z" transform="translate(0 -0.91)"/><path d="M253.8,306.28a1.88,1.88,0,0,1-.52-.66,2.24,2.24,0,0,1-.18-.73l.34,0a1.42,1.42,0,0,0,.16.68,1.76,1.76,0,0,0,.41.53,2.06,2.06,0,0,0,1,.46,2.29,2.29,0,0,0,1.31-.28,5.53,5.53,0,0,0,1.54-1.31,4.44,4.44,0,0,0,.76-1.2,1.94,1.94,0,0,0,.16-1.14,1.65,1.65,0,0,0-.6-1,1.37,1.37,0,0,0-.74-.32,1.64,1.64,0,0,0-.81.12,1.94,1.94,0,0,0-.71.52,2.12,2.12,0,0,0-.44.76,1.29,1.29,0,0,0,0,.8,1.64,1.64,0,0,0,.56.77,1.83,1.83,0,0,0,.84.39,2.92,2.92,0,0,0,1.28,0l-.27.33a3.76,3.76,0,0,1-.75,0,2.73,2.73,0,0,1-.71-.17,2,2,0,0,1-.6-.35,2.26,2.26,0,0,1-.66-.86,1.59,1.59,0,0,1-.07-.94,2.41,2.41,0,0,1,.54-1,2.07,2.07,0,0,1,.87-.61,2.14,2.14,0,0,1,1-.09,1.85,1.85,0,0,1,.88.42,2.16,2.16,0,0,1,.6.77,1.91,1.91,0,0,1,.16.92,2.7,2.7,0,0,1-.28,1,4.57,4.57,0,0,1-.72,1.07,6.09,6.09,0,0,1-1.29,1.17,3.1,3.1,0,0,1-1.19.49,2.21,2.21,0,0,1-1-.07A2.63,2.63,0,0,1,253.8,306.28Z" transform="translate(0 -0.91)"/><path d="M256.66,308.55l.13-.16c1.1,0,2-.1,2.78-.17a9.66,9.66,0,0,0,1.84-.34,2.39,2.39,0,0,0,1.09-.67,1.78,1.78,0,0,0,.37-.67,1.25,1.25,0,0,0-.05-.74,2,2,0,0,0-.57-.75,2,2,0,0,0-.87-.42,2.8,2.8,0,0,0-1,0l-.05-.32a3.7,3.7,0,0,1,1.1.05,2.24,2.24,0,0,1,1,.52,2.29,2.29,0,0,1,.66.85,1.57,1.57,0,0,1,.11.9,1.84,1.84,0,0,1-.43.86,2.56,2.56,0,0,1-1.18.73,9.16,9.16,0,0,1-1.85.34l-2.53.18.48.36.47.38,1.94,1.65-.2.23Z" transform="translate(0 -0.91)"/><path d="M261.16,312.38l3.93-4.55a1.84,1.84,0,0,1,.63-.5,1,1,0,0,1,.62-.07,1.33,1.33,0,0,1,.6.31,2.16,2.16,0,0,1,.25.27,3.78,3.78,0,0,1,.22.33l-.27.15a1.52,1.52,0,0,0-.4-.53.74.74,0,0,0-.7-.2,1.48,1.48,0,0,0-.71.5l-3.9,4.52Zm2.4-3.91.17-.19.59.44,1.23,1-.19.22Z" transform="translate(0 -0.91)"/><path d="M263,264.05l1.82-1.28-.63-.68.22-.19.66.7,1.48-1-.68-.73.22-.2.69.75,1.66-1.14.23.23L267,261.63l1.17,1.26,1.67-1.14.22.24-1.66,1.14.62.66-.21.2-.64-.68-1.48,1,.65.7-.22.2-.68-.73-1.82,1.28-.22-.23,1.82-1.29L265.08,263l-1.82,1.28Zm2.29-1.21,1.18,1.26,1.47-1-1.17-1.26Z" transform="translate(0 -0.91)"/><path d="M267.33,268.82a2.41,2.41,0,0,1-.42-.65,1.21,1.21,0,0,1-.06-.7,1.23,1.23,0,0,1,.4-.66,1.33,1.33,0,0,1,1.48-.22,8.2,8.2,0,0,1,2.24,1.52,2.34,2.34,0,0,0,.51-.58,1.14,1.14,0,0,0,.2-.69,1.16,1.16,0,0,0-.39-.78,2.41,2.41,0,0,0-.84-.61,4.15,4.15,0,0,0-.78-.26l.08-.31a3.45,3.45,0,0,1,.5.16,3.11,3.11,0,0,1,.64.31,2.81,2.81,0,0,1,.64.52,1.7,1.7,0,0,1,.49.89,1.3,1.3,0,0,1-.15.82,3.11,3.11,0,0,1-.57.72L269,270.42l-.2-.22.44-.48,0,0a5.62,5.62,0,0,1-1-.29A2.44,2.44,0,0,1,267.33,268.82Zm.25-.19a2.14,2.14,0,0,0,.78.54,4.89,4.89,0,0,0,1.12.3l1.28-1.17a10.06,10.06,0,0,0-1.48-1.12,2.22,2.22,0,0,0-1-.37,1,1,0,0,0-.72.27.87.87,0,0,0-.35.79A1.5,1.5,0,0,0,267.58,268.63Z" transform="translate(0 -0.91)"/><path d="M271.56,273.34a2.48,2.48,0,0,1-.61-1.09A2.17,2.17,0,0,1,271,271a2.8,2.8,0,0,1,.79-1.15,2.77,2.77,0,0,1,1.25-.7,2.36,2.36,0,0,1,1.24.06,2.47,2.47,0,0,1,1,.66,2,2,0,0,1,.48.79,3.11,3.11,0,0,1,.13.75h-.33a2.78,2.78,0,0,0-.12-.69,1.68,1.68,0,0,0-.39-.64,1.89,1.89,0,0,0-.9-.55,2.08,2.08,0,0,0-1.08,0,2.74,2.74,0,0,0-1.73,1.57,2,2,0,0,0-.1,1,2,2,0,0,0,.52,1,2.11,2.11,0,0,0,.68.48,3,3,0,0,0,.75.2l0,.32a3.42,3.42,0,0,1-.85-.25A2.18,2.18,0,0,1,271.56,273.34Z" transform="translate(0 -0.91)"/><path d="M273.66,275.41l.22-.21,1.15,1.23,4.08-3.74-.87-.94.17-.16c.23.17.44.32.64.44a3,3,0,0,0,.55.26l.21.23-4.54,4.17,1.08,1.15-.23.2Z" transform="translate(0 -0.91)"/><path d="M278,280.23a1.91,1.91,0,0,1-.42-.65,1.15,1.15,0,0,1,.34-1.36,1.33,1.33,0,0,1,1.47-.21,8.12,8.12,0,0,1,2.24,1.51,2.54,2.54,0,0,0,.52-.57,1.25,1.25,0,0,0,.19-.7,1.16,1.16,0,0,0-.39-.78,2.41,2.41,0,0,0-.84-.6,5.18,5.18,0,0,0-.77-.27l.07-.31c.13,0,.3.09.5.16a5.36,5.36,0,0,1,.65.31,3.34,3.34,0,0,1,.63.52,1.67,1.67,0,0,1,.49.89,1.3,1.3,0,0,1-.15.82,2.55,2.55,0,0,1-.57.72l-2.31,2.12-.2-.22.44-.47,0,0a5.48,5.48,0,0,1-1-.29A2.47,2.47,0,0,1,278,280.23Zm.24-.18a2.22,2.22,0,0,0,.79.54,4.79,4.79,0,0,0,1.11.3l1.28-1.17a10.24,10.24,0,0,0-1.48-1.13,2.34,2.34,0,0,0-1-.37,1,1,0,0,0-.72.27.84.84,0,0,0-.34.79A1.51,1.51,0,0,0,278.25,280.05Z" transform="translate(0 -0.91)"/><path d="M280.6,282.83l.16-.14c1.09.08,2,.13,2.78.14a9.08,9.08,0,0,0,1.86-.12,2.45,2.45,0,0,0,1.17-.54,1.73,1.73,0,0,0,.43-.63,1.24,1.24,0,0,0,0-.74,1.84,1.84,0,0,0-.48-.81,1.9,1.9,0,0,0-.82-.51,3,3,0,0,0-1-.15l0-.32a3.6,3.6,0,0,1,1.09.17,2.25,2.25,0,0,1,1,.64,2.33,2.33,0,0,1,.56.92,1.57,1.57,0,0,1,0,.91,1.84,1.84,0,0,1-.53.8,2.55,2.55,0,0,1-1.26.59,9.39,9.39,0,0,1-1.87.13c-.73,0-1.57-.06-2.54-.11.15.13.29.27.44.42l.42.43,1.73,1.85-.22.21Z" transform="translate(0 -0.91)"/><path d="M284.63,287.15l4.43-4.07a2,2,0,0,1,.68-.43,1,1,0,0,1,.63,0,1.33,1.33,0,0,1,.56.38,1.69,1.69,0,0,1,.22.29,2.42,2.42,0,0,1,.18.36l-.29.11a1.47,1.47,0,0,0-.33-.57A.73.73,0,0,0,290,283a1.42,1.42,0,0,0-.77.42l-4.4,4Zm2.84-3.61.19-.17.54.5,1.1,1.18-.22.21Z" transform="translate(0 -0.91)"/><ellipse class="cls-21" cx="241.27" cy="623.96" rx="8.65" ry="8.58"/><ellipse class="cls-22" cx="231.09" cy="599.19" rx="8.65" ry="8.58"/><ellipse class="cls-23" cx="224.32" cy="579.12" rx="8.65" ry="8.58"/><ellipse class="cls-24" cx="218.43" cy="556.5" rx="8.65" ry="8.58"/><ellipse class="cls-25" cx="214.26" cy="533.03" rx="8.65" ry="8.58"/><ellipse class="cls-26" cx="212.3" cy="498.93" rx="8.65" ry="8.58"/><ellipse class="cls-27" cx="214.22" cy="463.99" rx="8.65" ry="8.58"/><ellipse class="cls-28" cx="221.31" cy="426.52" rx="8.65" ry="8.58"/><ellipse class="cls-29" cx="235.29" cy="387.82" rx="8.65" ry="8.58"/><ellipse class="cls-30" cx="253.12" cy="352.54" rx="8.65" ry="8.58"/><ellipse class="cls-31" cx="274.81" cy="320.7" rx="8.65" ry="8.58"/><ellipse class="cls-32" cx="297.31" cy="294.82" rx="8.65" ry="8.58"/><ellipse class="cls-33" cx="317.9" cy="276.27" rx="8.65" ry="8.58"/><ellipse class="cls-34" cx="342.11" cy="258.06" rx="8.65" ry="8.58"/><ellipse class="cls-35" cx="365.06" cy="244.53" rx="8.65" ry="8.58"/><ellipse class="cls-36" cx="382.8" cy="236.06" rx="8.65" ry="8.58"/><ellipse class="cls-37" cx="401.76" cy="228.92" rx="8.65" ry="8.58"/><path d="M932.77,347.17l-1.19-1.62-.6.58-.18-.19.63-.6-1-1.32-.65.62-.18-.19.66-.64-1.06-1.47.21-.2,1.06,1.47,1.12-1.07-1.06-1.48.21-.21,1.07,1.48.59-.57.18.19-.61.59,1,1.31.63-.6.18.19-.66.63,1.2,1.61-.21.21-1.2-1.61-1.12,1.07L933,347Zm-1.13-2,1.12-1.08-1-1.31-1.12,1.08Z" transform="translate(0 -0.91)"/><path d="M936.23,344.05l-3.34-4.28a1.57,1.57,0,0,1-.33-.64.88.88,0,0,1,0-.56,1.26,1.26,0,0,1,.39-.48,1.89,1.89,0,0,1,.28-.17,2,2,0,0,1,.34-.13l.08.26a1.35,1.35,0,0,0-.54.25.69.69,0,0,0-.31.59,1.37,1.37,0,0,0,.33.71l3.31,4.26Zm-3-2.82-.15-.18.5-.44,1.15-.9.17.21Z" transform="translate(0 -0.91)"/><path d="M939.56,341.85a2.17,2.17,0,0,1-1.07.36,1.94,1.94,0,0,1-1.07-.25,2.51,2.51,0,0,1-.9-.88,2.59,2.59,0,0,1-.42-1.22,2.11,2.11,0,0,1,.25-1.09,2.16,2.16,0,0,1,.76-.8,1.73,1.73,0,0,1,.79-.3,2.63,2.63,0,0,1,.69,0l-.06.29a2.66,2.66,0,0,0-.63,0,1.62,1.62,0,0,0-.64.24,1.68,1.68,0,0,0-.64.71,1.8,1.8,0,0,0-.17.95,2.32,2.32,0,0,0,.36,1,2.3,2.3,0,0,0,.76.76,1.68,1.68,0,0,0,.91.26,1.71,1.71,0,0,0,.94-.3,1.59,1.59,0,0,0,.54-.52,2.63,2.63,0,0,0,.31-.63l.27.08a3.12,3.12,0,0,1-.35.71A2.13,2.13,0,0,1,939.56,341.85Z" transform="translate(0 -0.91)"/><path d="M943,340a1.93,1.93,0,0,1-1.06.2,1.72,1.72,0,0,1-1-.41,2.89,2.89,0,0,1-.74-1,2.44,2.44,0,0,1-.24-1.23,2.15,2.15,0,0,1,.38-1.06,2.1,2.1,0,0,1,.86-.7,1.89,1.89,0,0,1,.76-.19,3.37,3.37,0,0,1,.81.08l-.36-.74-.77-1.67.3-.14,2.74,6-.25.11-.28-.51h0a3.3,3.3,0,0,1-.44.73A1.91,1.91,0,0,1,943,340Zm-.08-.26a1.68,1.68,0,0,0,.65-.51,3.85,3.85,0,0,0,.48-.83L943,335.93a2.87,2.87,0,0,0-.87-.11,1.73,1.73,0,0,0-.71.18,1.48,1.48,0,0,0-.71.62,1.79,1.79,0,0,0-.28.94,2.23,2.23,0,0,0,.2,1,2.77,2.77,0,0,0,.62.87,1.5,1.5,0,0,0,1.74.26Z" transform="translate(0 -0.91)"/><path d="M948.08,338.12a2.19,2.19,0,0,1-1.13.06,2,2,0,0,1-1-.53,2.54,2.54,0,0,1-.62-1.11,2.36,2.36,0,0,1-.06-1.28,2,2,0,0,1,.54-1,2.19,2.19,0,0,1,.94-.56,1.83,1.83,0,0,1,.85-.07,2.36,2.36,0,0,1,.65.2l-.14.26a3,3,0,0,0-.6-.18,1.45,1.45,0,0,0-.68.05,1.71,1.71,0,0,0-.81.51,1.78,1.78,0,0,0-.42.87,2.27,2.27,0,0,0,.06,1.09,2.44,2.44,0,0,0,.52.94,1.68,1.68,0,0,0,1.79.47,1.74,1.74,0,0,0,.67-.36,2.49,2.49,0,0,0,.46-.52l.25.15a3,3,0,0,1-.54.59A2,2,0,0,1,948.08,338.12Z" transform="translate(0 -0.91)"/><path d="M952.67,337.06l-.67-4.28q0-.18-.06-.48c0-.19,0-.36-.05-.48h0c-.06.13-.13.26-.2.38s-.14.25-.21.39l-1.58,2.84,3.78-.6,0,.27-4.21.66,0-.16,2.42-4.32.22,0L953,337Z" transform="translate(0 -0.91)"/><path d="M955,336.81v-.28l1.52,0-.1-5-1.16,0v-.21a4.81,4.81,0,0,0,.68-.17,2.45,2.45,0,0,0,.51-.21h.28l.12,5.56,1.42,0v.28Z" transform="translate(0 -0.91)"/><path d="M976.35,322.76l.24.12-3.18,6.74-.24-.11Zm-1.26,1.13.22.15-.36.59c-.15.21-.3.42-.47.63a4.92,4.92,0,0,1-.48.52l-.2-.18a4.62,4.62,0,0,0,.46-.5c.15-.2.31-.4.46-.61S975,324.08,975.09,323.89Zm1.51,3,3.87,1.83-.1.22-3.64-1.72-1.52,3.22-.24-.11Zm-.83,2.07,3.75,1.77-.1.22-3.76-1.77Zm.49-1L980,329.7l-.11.23-3.72-1.76Zm0-3.7.24,0a4.94,4.94,0,0,1,0,.67,5.43,5.43,0,0,1-.07.58h-.27a5.57,5.57,0,0,0,.07-.6C976.29,324.7,976.29,324.47,976.29,324.25Zm0,1.55,5.36,2.53-.11.21L976.23,326Zm.87-.75,4.52,2.14-.1.21-4.52-2.13Zm.24-1,4.87,2.3-.1.22-4.87-2.3Zm2.88,4.58.25.11-1.45,3.07a.34.34,0,0,1-.14.18.28.28,0,0,1-.21,0,2.85,2.85,0,0,1-.41-.14l-.71-.34a.34.34,0,0,0,0-.11.76.76,0,0,0,0-.15l.65.32.36.17q.15.06.21-.06ZM980,324.5l.24.12-1.21,2.55-.23-.11Z" transform="translate(0 -0.91)"/><path d="M980.74,332.2l.75.35.91.42,1,.45-.12.2-1.39-.64-1.22-.55Zm.89-1a.34.34,0,0,0,0-.08l0-.1a.29.29,0,0,0,0-.09.62.62,0,0,0,.33,0l.52-.09.5-.11.78-.2c.3-.08.6-.18.93-.28s.63-.23.93-.36l.14.25c-.66.24-1.33.45-2,.64a12.6,12.6,0,0,1-1.9.39h0l-.13,0h-.11A.06.06,0,0,0,981.63,331.24Zm0,0,.13-.17.23,0,2.1,1.06-.05.08a.41.41,0,0,0,0,.09l-1.2-.58-.67-.32-.34-.14Zm1.12-1.61a.2.2,0,0,0,0-.08l0-.1a.51.51,0,0,0,0-.09.36.36,0,0,0,.27,0l.42-.14.4-.15.62-.28.73-.36c.25-.14.49-.28.72-.43l.16.23q-.51.3-1,.57c-.36.18-.71.34-1.06.48a8,8,0,0,1-1,.35h0l-.13,0h-.1A.09.09,0,0,0,982.75,329.63Zm0,0,.13-.18.23,0,1.56.9-.07.09a.9.9,0,0,0-.05.09l-.88-.5-.52-.27-.26-.13A.3.3,0,0,0,982.75,329.63Zm2.84,2.94,2.71,2-2.06,2.76-.21-.16,1.91-2.57-2.28-1.7-1.93,2.59-.21-.16ZM984,335l2.49,1.85-.14.2-2.49-1.86Zm6.42-3.1.15.22a9.73,9.73,0,0,1-3.12.72,12.49,12.49,0,0,1-3.23-.21.28.28,0,0,0,0-.08s0-.07,0-.11l0-.1a11,11,0,0,0,3.22.27A9.32,9.32,0,0,0,990.42,331.85Zm-5.56,1.95,2.49,1.85-.15.19L984.72,334Zm.52-3,4.19,3.13-.14.2-4.2-3.13Zm1.37-.94,2.69,2-.15.19-2.68-2Zm2,.1.21.16-1.69,2.26-.21-.16Z" transform="translate(0 -0.91)"/><path d="M991.18,337.78l.18.2-.08.06,0,0c-.52.4-.94.72-1.27.94a5.66,5.66,0,0,1-.78.47.94.94,0,0,1-.45.12.57.57,0,0,1-.22-.07,1.09,1.09,0,0,1-.22-.18L988,339c-.11-.13-.23-.29-.35-.45l.07-.09a.29.29,0,0,0,0-.13c.14.19.27.35.4.5l.26.3a.79.79,0,0,0,.13.13.21.21,0,0,0,.14,0,.9.9,0,0,0,.41-.12,8.05,8.05,0,0,0,.77-.47c.32-.23.74-.54,1.25-.93Zm-1.7,2.29.95.94,1.17,1.15,1.26,1.22-.17.15-1.22-1.17c-.4-.4-.79-.77-1.15-1.12l-1-.95Zm1.78-5,.18.2c-.19.14-.39.28-.61.42l-.65.42-.54.34-.19-.21.57-.33c.21-.13.43-.27.64-.42Zm-1.49,1.17,1.46,1.62L991,338l-1.45-1.62Zm2.78,1.71,2.83,3.16-1.52,1.36L991,339.28Zm2.08.77.18.21-3.55,3.17-.19-.19Zm-3.29-3.56,1.33,1.49,1.21-1.09-1.61-1.8.18-.16,1.78,2-1.56,1.4-1.51-1.68Zm1.2,3.15-1.15,1,2.48,2.77,1.15-1Zm.31,3.73.24.09a6.87,6.87,0,0,1-.08.78c0,.27-.1.52-.15.76a3.9,3.9,0,0,1-.19.6l-.26-.09a3,3,0,0,0,.2-.6,5.66,5.66,0,0,0,.16-.76A7.37,7.37,0,0,0,992.85,342Zm1.93-5.83,2.55,2.85-1.4,1.25-2.55-2.84Zm0,.36-1,.93,2.19,2.45L997,339Z" transform="translate(0 -0.91)"/><path d="M999,342.11l.14.23-2,1.17c-.27.16-.57.32-.89.48a9.54,9.54,0,0,1-1,.46,8.58,8.58,0,0,1-1.09.34,4.8,4.8,0,0,1-1.12.12.19.19,0,0,0,0-.08v-.1a.25.25,0,0,0,0-.09,4,4,0,0,0,1.09-.11,7.53,7.53,0,0,0,1-.33,8.82,8.82,0,0,0,1-.45c.31-.16.6-.32.86-.48Zm-.2,7.17,0,.05,0,0v.2a3.77,3.77,0,0,1-1.45-.33,6.56,6.56,0,0,1-1.37-.87,9.68,9.68,0,0,1-1.28-1.21,17.08,17.08,0,0,1-1.16-1.39.43.43,0,0,0,.07-.1.75.75,0,0,0,.07-.12,14,14,0,0,0,1.1,1.37,12.68,12.68,0,0,0,1.24,1.2,6.86,6.86,0,0,0,1.32.85,3.26,3.26,0,0,0,1.34.33Zm-2.72-4.62,2.76,4.69-.22.12-2.75-4.68Zm.48,1.32a4.08,4.08,0,0,0-.31,1.65,7.92,7.92,0,0,0,.28,2,12.88,12.88,0,0,0,.76,2.09H997a13.91,13.91,0,0,1-.73-2.11,8.19,8.19,0,0,1-.27-2,4.29,4.29,0,0,1,.33-1.72Zm3.15-1.7.14.24-2,1.19,1.4,2.39,2-1.19.14.23-2.23,1.31-1.68-2.85Zm-1.63-1,3.36,5.72-.2.12-3.37-5.72Zm1-1.06,3.64,6.18-.22.12-3.63-6.17Zm2.28,2.14.2.18c-.08.18-.17.37-.27.56a3.52,3.52,0,0,1-.27.47l-.22-.17c.08-.12.18-.28.29-.47A4.8,4.8,0,0,0,1001.32,344.36Z" transform="translate(0 -0.91)"/><path d="M1005.67,353.54l.09.26-7,2.45-.09-.26Zm-2.57-2.74,2.34,6.76-3.44,1.2-.08-.25,3.21-1.12-2.17-6.26-3.26,1.13-.08-.25Zm-2.67,1.09,2.27,6.53-.22.08-2.27-6.54Z" transform="translate(0 -0.91)"/><path d="M1004.41,365.91l0,.26-3.05.42a.44.44,0,0,1-.27,0,.39.39,0,0,1-.16-.23,3.5,3.5,0,0,1-.11-.54c0-.25-.09-.58-.14-1l.12-.06.11-.09c0,.26.06.49.08.69s.05.37.07.5,0,.23,0,.29a.34.34,0,0,0,.07.17.17.17,0,0,0,.13,0Zm-2.25-3.94.17.19c-.08.23-.18.46-.29.7s-.25.47-.37.67a3.81,3.81,0,0,1-.38.5l-.2-.19a2.81,2.81,0,0,0,.38-.5,5.16,5.16,0,0,0,.37-.66C1002,362.44,1002.06,362.21,1002.16,362Zm.43-1.48,1,7.69-.25,0-1-7.69Zm1.18-.41,1.11,8.14-.25,0-1.11-8.14Zm2.5,3.64,0,.27-2.11.28,0-.27Zm-1.14-2.93.87,6.39-.24,0-.87-6.39Zm2.59,0,0,.27a6.91,6.91,0,0,1-1.23-.43,5.62,5.62,0,0,1-1-.62l0-.07,0-.1a.36.36,0,0,0,0-.09,4.81,4.81,0,0,0,1,.63A5.53,5.53,0,0,0,1007.72,360.84Zm-.91.54.08.26a5.31,5.31,0,0,1-.53.32,2.3,2.3,0,0,1-.49.23l-.09-.27a3.8,3.8,0,0,0,.49-.22A4.53,4.53,0,0,0,1006.81,361.38Zm1.38,2.9v.27a4.51,4.51,0,0,1-1.16-.43,4.62,4.62,0,0,1-1-.67s0,0,.05-.07a.41.41,0,0,1,0-.09.36.36,0,0,0,0-.09,3.9,3.9,0,0,0,.91.67A4,4,0,0,0,1008.19,364.28Zm-.89.68.12.22a4.43,4.43,0,0,1-.52.55,2.43,2.43,0,0,1-.52.41l-.14-.23a2.29,2.29,0,0,0,.53-.39A4.59,4.59,0,0,0,1007.3,365Zm-.43-4.34.41,3-.24,0-.41-3Zm.46,3.38.51,3.68-.24,0-.51-3.67Z" transform="translate(0 -0.91)"/><path d="M1011.73,392.6l-.08.26-3.21-1.11a.39.39,0,0,1-.19-.12.33.33,0,0,1,0-.21,2,2,0,0,1,.1-.42c.06-.19.15-.44.26-.75h.11l.14,0c-.09.26-.18.49-.24.68s-.11.32-.13.38a.14.14,0,0,0,.09.2Zm-.79-4.49-1.36,3.92-.24-.08,1.36-3.93Zm2.14.59-1.4,4.05-.23-.08,1.32-3.8-3.37-1.16.08-.25Zm4.09-.68-.08.25-7.05-2.44.08-.25Zm-5.16.46-1.34,3.88-.24-.08,1.34-3.88Zm2.14-.16-1.93,5.59-.23-.07,1.94-5.6Zm1.69,3.55-.08.25-2.67-.92.09-.25Zm-.85-2.77-1.63,4.73-.23-.08,1.63-4.73Zm.92-2.22-.12.23a6.45,6.45,0,0,1-.62-.29c-.23-.13-.46-.26-.68-.4a4.69,4.69,0,0,1-.57-.42l.16-.22a3.74,3.74,0,0,0,.55.4,7.16,7.16,0,0,0,.66.39C1015.51,386.69,1015.72,386.8,1015.91,386.88Zm.06,2.36-1.76,5.09-.23-.08,1.76-5.09Zm-.29-1.13v.25c-.21,0-.44.06-.67.07a2.88,2.88,0,0,1-.59,0l0-.27h.61A6.37,6.37,0,0,0,1015.68,388.11Z" transform="translate(0 -0.91)"/><path d="M1008.62,398.28l-1.6,3-3-1.63.13-.23,2.82,1.52,1.35-2.51-2.84-1.53.12-.23Zm-2.59-1.22-1.47,2.73-.21-.12,1.47-2.73Zm1.27.68-1.47,2.73-.21-.12,1.46-2.73Zm1-4.32-.24.8c-.08.3-.18.62-.28,1s-.19.68-.3,1l-.21-.1c.15-.49.29-1,.43-1.47s.26-.91.36-1.28Zm2.05,4.39-2.48,4.61-.22-.12,2.48-4.61ZM1010,403l-.2.18a9.85,9.85,0,0,1-1.17-3,12.53,12.53,0,0,1-.27-3.23l.09,0,.1,0,.09,0a11.16,11.16,0,0,0,.21,3.21A9.27,9.27,0,0,0,1010,403Zm-.69-8.79.19.1,0,.24-.74,2.23-.09,0-.1,0q.25-.78.39-1.26l.22-.72a2.56,2.56,0,0,0,.09-.35A1.37,1.37,0,0,0,1009.35,394.16Zm2.3,6.88-.13.23-2.48-1.34.12-.23Zm-2.3-6.88.08,0,.11,0h.09a.66.66,0,0,0,0,.34c0,.14.1.31.17.5s.09.26.18.48.19.46.31.74.26.57.42.87a8.94,8.94,0,0,0,.48.87l-.22.17q-.5-.93-.93-1.89a12.28,12.28,0,0,1-.66-1.82h0s0-.1,0-.14,0-.07,0-.1A.09.09,0,0,0,1009.35,394.16Zm2.1,4.87-1.58,3-.21-.12,1.58-2.94Zm-.34-4,.19.1v.23l-.66,1.68-.1-.06-.09,0,.36-1c.08-.23.15-.42.19-.55a2.75,2.75,0,0,0,.09-.28A.34.34,0,0,0,1011.11,395Zm0,0,.08,0,.11,0h.09a.36.36,0,0,0,.05.27c0,.11.12.24.2.39s.11.21.21.38.22.36.36.57.3.44.47.67.35.45.53.65l-.21.19c-.24-.31-.48-.62-.71-.95s-.45-.66-.64-1-.35-.64-.49-.94h0a.66.66,0,0,0,0-.13.31.31,0,0,0,0-.1A.07.07,0,0,0,1011.11,395Z" transform="translate(0 -0.91)"/><path d="M1003.84,407.89a10.23,10.23,0,0,0-1.94-.76,5.92,5.92,0,0,0-1.84-.21,4,4,0,0,0-1.66.47.38.38,0,0,0,0-.1.34.34,0,0,0,0-.1.19.19,0,0,0,0-.08,4.31,4.31,0,0,1,1.72-.45,6.24,6.24,0,0,1,1.88.23,9.74,9.74,0,0,1,2,.78Zm2.28,1.36-.16.21-1.38-1.06a12.51,12.51,0,0,1-1.07-.92,7,7,0,0,1-1-1.17,5.74,5.74,0,0,1-.68-1.5,6.1,6.1,0,0,1-.22-1.93l.12,0,.14-.05a5.65,5.65,0,0,0,.21,1.9,5.42,5.42,0,0,0,.67,1.48,6.56,6.56,0,0,0,.94,1.13,11.19,11.19,0,0,0,1,.88Zm1.87-2.41-.16.21-5.92-4.54.17-.21Zm-2.46-1-3.33,4.35-.2-.15,3.34-4.35ZM1005,410l0,.24-.67.07-.67,0a4.36,4.36,0,0,1-.54,0V410l.55,0,.68,0C1004.53,410,1004.75,410,1005,410Zm-.06-8.18c0,.34,0,.77.06,1.28s.06,1,.1,1.55l-.24,0c-.05-.47-.09-.95-.13-1.43s-.06-.92-.08-1.31Zm3.24,2.8v.23c-.22.05-.45.08-.69.11l-.7.07h-.57v-.28a3.57,3.57,0,0,0,.58,0,5.91,5.91,0,0,0,.7,0A7,7,0,0,0,1008.15,404.57Z" transform="translate(0 -0.91)"/><path d="M995,414l-.13.23c-.28-.06-.56-.12-.86-.21s-.57-.17-.83-.27a4,4,0,0,1-.65-.3l.15-.26a4.27,4.27,0,0,0,.64.31,8,8,0,0,0,.83.29Zm3.18-3-.19.18-1.26-1.33a.22.22,0,0,0-.26-.07,2.56,2.56,0,0,0-.49.39l-.24.23-.41.39-.47.44-.43.4-.28.27a.83.83,0,0,0-.24.31.42.42,0,0,0,.06.33,3.27,3.27,0,0,0,.38.51l-.09,0-.09,0-.09,0a3,3,0,0,1-.4-.57.53.53,0,0,1,0-.42,1.21,1.21,0,0,1,.34-.44l.23-.22.43-.41.5-.47.43-.41a1.52,1.52,0,0,0,.22-.21,5.42,5.42,0,0,1,.51-.42.41.41,0,0,1,.64.09Zm.8,4.15a4.37,4.37,0,0,0-2.36-.45,5.62,5.62,0,0,0-2.47.83.34.34,0,0,0,0-.1s0-.08,0-.11,0-.07,0-.1a6.7,6.7,0,0,1,1.68-.65,5.05,5.05,0,0,1,1.68-.11,4.9,4.9,0,0,1,1.62.45ZM997.42,412l-.07.23-.77.07-.77,0a4.23,4.23,0,0,1-.64,0l.06-.27a5.27,5.27,0,0,0,.63,0l.79,0C996.92,412.05,997.18,412,997.42,412Zm4.62.25-5.8,5.47-.17-.18,5.8-5.47Zm-3.57.51,0,.25a6.19,6.19,0,0,1-.62.13c-.22,0-.43.06-.63.08a2.4,2.4,0,0,1-.53,0l0-.26a2.24,2.24,0,0,0,.52,0,4.94,4.94,0,0,0,.63-.08A5.84,5.84,0,0,0,998.47,412.76Zm.27-2.5-.22.11c-.09-.2-.19-.43-.29-.68a7.32,7.32,0,0,1-.25-.75,3.43,3.43,0,0,1-.14-.74l.26-.08a3.27,3.27,0,0,0,.12.73,6,6,0,0,0,.25.75C998.56,409.85,998.66,410.07,998.74,410.26Zm1.34,5.56-.21.2a10,10,0,0,1-.64-1,5.13,5.13,0,0,1-.45-1.08,4.15,4.15,0,0,1-.14-1.18,4.66,4.66,0,0,1,.28-1.34,6.86,6.86,0,0,1,.8-1.53l.12,0h.14a7.31,7.31,0,0,0-.79,1.5,3.82,3.82,0,0,0-.15,2.44,5.66,5.66,0,0,0,.43,1C999.66,415.2,999.86,415.52,1000.08,415.82Z" transform="translate(0 -0.91)"/><path d="M987.27,419.36l-.15.21c-.27-.1-.56-.22-.85-.36s-.57-.27-.83-.41l-.64-.37.16-.25c.17.12.38.25.64.4s.53.28.83.42S987,419.26,987.27,419.36Zm4.69,2.19-3.14,2.13-1.91-2.81,3.14-2.13Zm-.36-.05L990,419.1l-2.68,1.82,1.63,2.41Zm-2.69-3.14-.25.11a6.14,6.14,0,0,1-.26-1.46,4.92,4.92,0,0,1,.09-1.35h.28a4.37,4.37,0,0,0-.11,1.32A6,6,0,0,0,988.91,418.36Zm5,2-.23.15-3.9-5.75.23-.16Zm-1.45-1.75-.34-.09-.51-.14-.56-.18-.5-.15-.33-.1.06-.32a4.83,4.83,0,0,0,.47.18c.2.08.43.15.66.23l.66.22.47.12Zm1.83-.78-3,2-.13-.2,3-2Zm-1.48.92-.23.07c-.08-.29-.15-.6-.21-.94s-.1-.68-.13-1,0-.68,0-1a5.13,5.13,0,0,1,.06-.83l.14,0,.14,0a6,6,0,0,0-.09,1.11,10,10,0,0,0,.1,1.31A8.45,8.45,0,0,0,992.77,418.78Zm.14,2.79-.28,0a9.21,9.21,0,0,1,.66-.78c.26-.29.55-.57.86-.87s.61-.56.91-.82l.09.06.1.05-.89.82c-.3.29-.59.57-.84.85A7.61,7.61,0,0,0,992.91,421.57Z" transform="translate(0 -0.91)"/><path d="M982.22,425.11a9.6,9.6,0,0,0-1.62-1.57,6.61,6.61,0,0,0-1.85-1,5,5,0,0,0-2-.24.79.79,0,0,0,0-.09l0-.1a.32.32,0,0,0,0-.09,5.13,5.13,0,0,1,2.06.29,6.72,6.72,0,0,1,1.88,1,11,11,0,0,1,1.65,1.63Zm-3.08.76,0,0-.06,0h-.19a7,7,0,0,1-.1-2.22,6.25,6.25,0,0,1,.55-1.87,7,7,0,0,1,1-1.54l.08,0,.1,0,.09,0a6.55,6.55,0,0,0-1,1.5,5.64,5.64,0,0,0-.55,1.8,6.3,6.3,0,0,0,.11,2.1Zm1.4-.65-1.5.7-.1-.23,1.6-.74Zm.49,2.42-.28.13c0-.29-.08-.61-.13-.95s-.09-.66-.13-1-.08-.59-.1-.83l.27-.12c0,.25,0,.53.08.85s.08.65.13,1S981,427.37,981,427.64Zm3.19-1.49-3.29,1.54-.11-.23,3.29-1.54Zm-1.12.47-.27.11c-.31-.74-.58-1.43-.8-2.07a12.22,12.22,0,0,1-.5-1.82,6.15,6.15,0,0,1-.11-1.64,4.78,4.78,0,0,1,.36-1.55l.08,0,.11,0h.09a4.61,4.61,0,0,0-.4,2,8.6,8.6,0,0,0,.43,2.27C982.35,424.8,982.69,425.67,983.1,426.62Zm2.73-.6-.24.11-3.16-6.75.24-.12Zm-1.17-1.92-.34-.17-.5-.27-.5-.28-.33-.19.09-.28.36.22.49.31.49.29.34.19Zm1.7-.16-2.55,1.19-.1-.22,2.55-1.19Zm-1.25.51-.24.05c-.07-.34-.12-.69-.16-1.07s-.07-.75-.08-1.12a9.32,9.32,0,0,1,0-1.07,5.19,5.19,0,0,1,.12-.89l.08,0,.1,0h.1a4.06,4.06,0,0,0-.14.86,8.54,8.54,0,0,0,0,1,10.09,10.09,0,0,0,.06,1.09A10.27,10.27,0,0,0,985.11,424.45Z" transform="translate(0 -0.91)"/><path d="M1013.9,322l.05.06.06,0,0,.21a4.7,4.7,0,0,1-1.75.12,6.8,6.8,0,0,1-1.77-.46,11,11,0,0,1-1.75-.88,18.49,18.49,0,0,1-1.67-1.16l0-.07s0-.07,0-.1a.17.17,0,0,0,0-.1,16.28,16.28,0,0,0,1.63,1.17,11.57,11.57,0,0,0,1.71.88,6.5,6.5,0,0,0,1.72.44,4.3,4.3,0,0,0,1.64-.11Zm-1.46-2.48.11.26a6.07,6.07,0,0,1-1.2-.17,9.65,9.65,0,0,1-1.3-.4,10.77,10.77,0,0,1-1.24-.54.15.15,0,0,0,0-.07s0-.06,0-.1v-.08c.38.19.78.37,1.21.54a10.91,10.91,0,0,0,1.27.4A4.45,4.45,0,0,0,1012.44,319.52Zm.3-3,.09.21a3.68,3.68,0,0,1-.91.16,6.15,6.15,0,0,1-1,0,4.06,4.06,0,0,1-.84-.15s0-.09,0-.14a.53.53,0,0,0,0-.13,3.3,3.3,0,0,0,.82.18,4.7,4.7,0,0,0,.92,0A4.4,4.4,0,0,0,1012.74,316.55Zm-2.52,3.17.23,0a7.71,7.71,0,0,1,.26.77c.08.28.15.55.2.8a4.09,4.09,0,0,1,.11.66l-.27,0c0-.18,0-.4-.1-.66s-.12-.53-.19-.8A8.16,8.16,0,0,0,1010.22,319.72Zm3.39-3.87.18.19-2.62,2.4-.18-.19Zm-2,3.67,2.34,2.56-.18.16-2.52-2.75Zm0-4.31,2.48,2.7-.19.17-2.47-2.71Zm1.21,1.56c0,.09,0,.23,0,.42s0,.41,0,.63,0,.43,0,.62,0,.33,0,.42l-.27,0c0-.09,0-.24,0-.43s0-.39,0-.61,0-.42,0-.61a3.72,3.72,0,0,0,0-.45Zm2.47,2.64.08.21a3.69,3.69,0,0,1-.91.14,6.39,6.39,0,0,1-1,0,3.63,3.63,0,0,1-.86-.18.53.53,0,0,0,0-.13v-.14a3.25,3.25,0,0,0,.83.21,7.31,7.31,0,0,0,.94,0A4.76,4.76,0,0,0,1015.36,319.41Zm.88-.69.18.21-2.62,2.39-.18-.2Zm-1.86-.56,2.72,3-.18.17-2.72-3Zm1.3,1.53a5.26,5.26,0,0,0-.19,1,6,6,0,0,0,0,1,4.49,4.49,0,0,0,.17.94l-.14,0h-.15a6.56,6.56,0,0,1-.13-1,7.62,7.62,0,0,1,0-1.07,4.82,4.82,0,0,1,.2-1Z" transform="translate(0 -0.91)"/><path d="M1014,325.21l.63.47.77.55.82.58-.15.18-1.17-.82-1-.74Zm3.28,3.31.16.23a3.54,3.54,0,0,1-.82.36,1.76,1.76,0,0,1-.75.05,2,2,0,0,1-.75-.28,5.46,5.46,0,0,1-.85-.67.16.16,0,0,0,0-.07.3.3,0,0,0,0-.1.29.29,0,0,0,0-.09,5.3,5.3,0,0,0,.79.66,2.09,2.09,0,0,0,.71.29,1.75,1.75,0,0,0,.68,0A3.45,3.45,0,0,0,1017.27,328.52Zm2.27-5.72.15.23-4.53,3.21L1015,326Zm-1.54,6.75.16.22-1.3.92c-.14.1-.2.18-.18.26a2.47,2.47,0,0,0,.18.31,2.75,2.75,0,0,1,.17.24l.19.27.15.2a.9.9,0,0,0,.14.14.28.28,0,0,0,.28.06l.26-.15.4-.27a.36.36,0,0,0,0,.14c0,.05,0,.09,0,.13l-.43.27a.89.89,0,0,1-.3.15.41.41,0,0,1-.36-.1,1.13,1.13,0,0,1-.18-.19,1.88,1.88,0,0,1-.18-.24l-.11-.16c-.06-.07-.11-.15-.16-.22l-.1-.15a1.43,1.43,0,0,1-.16-.24.76.76,0,0,1-.09-.25.22.22,0,0,1,0-.21,1.12,1.12,0,0,1,.29-.26Zm.37-3.22,2.29,3.23-1.82,1.29-2.29-3.23Zm-.85.93-.61.44,2,2.79.61-.44Zm-.25-4.21,1.37,1.94-.19.14-1.38-1.94Zm1.05,3.64-.6.43,2,2.79.6-.43Zm.44-1.26,2.89,4.08-.2.14-2.89-4.07Zm1.48.27.2.17c-.08.14-.17.3-.27.46a2.88,2.88,0,0,1-.27.39l-.22-.17a4.07,4.07,0,0,0,.28-.39A4.73,4.73,0,0,0,1020.24,325.7Zm-.08-.91,2.58,3.64-.19.14-2.59-3.64Zm1.54,2.92.07.29-.65.11-.62.06-.06-.24a6.18,6.18,0,0,0,.64-.08Zm.08-1.86.18.17c-.06.14-.13.29-.21.44a3.62,3.62,0,0,1-.22.37l-.21-.17.24-.37A4.51,4.51,0,0,0,1021.78,325.85Z" transform="translate(0 -0.91)"/><path d="M1018.76,334.48a.34.34,0,0,0,0-.08l0-.1a.36.36,0,0,0,0-.1,1.1,1.1,0,0,0,.33.12.63.63,0,0,0,.48-.07l3.23-1.73.13.23-3.57,1.91-.21-.08-.19-.06-.18,0Zm0,0,.22-.13.25,0,1.54.92-.07.09-.06.09-.92-.52c-.23-.14-.41-.23-.54-.3a1.78,1.78,0,0,0-.27-.14Zm4.41.1.13.24-2.93,1.57a.32.32,0,0,0-.21.28,1.55,1.55,0,0,0,.23.61l.16.29.26.49c.1.19.2.38.31.57l.27.52c.09.15.15.27.19.35a.86.86,0,0,0,.32.37.66.66,0,0,0,.48,0,6.09,6.09,0,0,0,.87-.37v.1a.41.41,0,0,0,0,.11.29.29,0,0,0,0,.09,5.6,5.6,0,0,1-.92.36.8.8,0,0,1-.58,0,1.31,1.31,0,0,1-.43-.52l-.14-.27c-.08-.15-.18-.32-.28-.52l-.32-.6-.28-.52a2.73,2.73,0,0,1-.14-.26,4,4,0,0,1-.27-.61.54.54,0,0,1,0-.4.76.76,0,0,1,.32-.28Zm-1-3.46.82,1.53-.22.12-.82-1.53Zm1.1,3.57,1.72,3.24-.22.11-1.72-3.23Zm1.28-3.88.23.12q0,.3-.12.63c-.06.21-.11.42-.16.62s-.11.37-.16.5l-.27-.1a4.61,4.61,0,0,0,.18-.5c.06-.2.11-.41.17-.63S1024.48,331,1024.52,330.81Zm1,2.33,1.91,3.59-3.06,1.63-.13-.23,2.85-1.52-1.79-3.36Z" transform="translate(0 -0.91)"/><path d="M1029.51,339.79l.1.25-7,2.67-.1-.26Zm1.35,6v0l0,.06v.2l0,0,0,0-2.44-1.05c-.69-.28-1.26-.52-1.73-.7s-.85-.32-1.16-.42-.53-.16-.71-.2a1.73,1.73,0,0,0-.41,0,.73.73,0,0,0-.23,0,.38.38,0,0,0-.23.39,1.57,1.57,0,0,0,.13.66l1.07,2.82a.59.59,0,0,0,.29.34,1,1,0,0,0,.58,0,9.45,9.45,0,0,0,1.11-.34v.14a.53.53,0,0,0,0,.14,9.8,9.8,0,0,1-1,.3,2.32,2.32,0,0,1-.62.08.54.54,0,0,1-.36-.15,1.17,1.17,0,0,1-.23-.4l-1.07-2.78a2,2,0,0,1-.17-1,.55.55,0,0,1,.38-.48.91.91,0,0,1,.26-.06l.42,0a4.9,4.9,0,0,1,.72.19c.31.09.7.23,1.18.41s1.07.42,1.76.71S1029.9,345.42,1030.86,345.84Zm-3.13-6.35,0,.26c-.2.05-.43.11-.69.16s-.51.09-.77.12a4.33,4.33,0,0,1-.71,0l0-.28a3.85,3.85,0,0,0,.68,0c.25,0,.5-.06.76-.11S1027.52,339.55,1027.73,339.49Zm.7,1.37.16.18a3.55,3.55,0,0,1-.36.45l-.38.42-.34.3-.21-.17.35-.31c.14-.13.27-.27.41-.42A4.88,4.88,0,0,0,1028.43,340.86Zm.85.86,1.6,4.17-.23.09-1.59-4.17Z" transform="translate(0 -0.91)"/><path d="M1032.77,349.07l.06.26-7.24,1.77-.07-.26Zm-3.31,4.75.07.26a5.6,5.6,0,0,1-1.15,0,2.69,2.69,0,0,1-1-.27,2.8,2.8,0,0,1-.85-.68,5.57,5.57,0,0,1-.77-1.19l.09-.09a.75.75,0,0,0,.07-.12,5.06,5.06,0,0,0,.72,1.16,2.84,2.84,0,0,0,.81.66,2.94,2.94,0,0,0,.93.27A5.53,5.53,0,0,0,1029.46,353.82Zm1.63-4.36v.26c-.33,0-.68,0-1,0s-.75,0-1.11-.08-.71-.1-1-.16a6.16,6.16,0,0,1-.84-.24.56.56,0,0,0,0-.08.35.35,0,0,0,.05-.08.36.36,0,0,0,0-.09,5.15,5.15,0,0,0,.8.24,8.91,8.91,0,0,0,1,.16,9.45,9.45,0,0,0,1.07.08A8.84,8.84,0,0,0,1031.09,349.46Zm-2.54,4.93a2.81,2.81,0,0,0-1,1.28,4.37,4.37,0,0,0-.27,1.8l-.07,0-.09-.05-.08,0a4.85,4.85,0,0,1,.32-1.86,3,3,0,0,1,1-1.33Zm-.65-2.95,1.32,5.39-.23.06-1.33-5.39Zm2.72-1.58a2.72,2.72,0,0,1-.27.3l-.44.44-.44.44-.29.27-.26-.15a4.31,4.31,0,0,0,.35-.29l.46-.43.44-.43a3.56,3.56,0,0,0,.29-.3Zm.64,1.49,1,4.24-2.32.57-1-4.24Zm-1.21.57-.82.2.92,3.73.81-.2Zm1-.26-.8.2.91,3.73.8-.2Zm-.24-3.45.62,2.54-.23.06-.62-2.54Zm2.62,3.74.06.25-1.77.44-.07-.26Zm-1.17-1.37,1.29,5.24-.24.06-1.28-5.24Zm1.64,3.31.06.26-1.77.44-.06-.26Z" transform="translate(0 -0.91)"/><path d="M1034.81,358.54l0,.26-7.41.86,0-.26Zm.24,4.64,0,.26-3.61.42-.9.08a6.3,6.3,0,0,1-1,0,5.1,5.1,0,0,1-.95-.16,3.07,3.07,0,0,1-.87-.38.15.15,0,0,0,0-.06.35.35,0,0,0,0-.08.16.16,0,0,0,0-.08,3.36,3.36,0,0,0,1.14.43,5.52,5.52,0,0,0,1.22.08c.42,0,.8,0,1.17-.08Zm-3.78-2.48,0,.27-3.26.38,0-.27Zm4,4.36,0,.27-6.71.78a.34.34,0,0,1-.39-.2,3.36,3.36,0,0,1-.07-.38,6.34,6.34,0,0,1-.08-.69l.1-.06.11-.08c0,.24,0,.45.07.63a2.51,2.51,0,0,0,.05.36.23.23,0,0,0,.06.13.12.12,0,0,0,.11,0Zm-3.36-6.18,0,.22L1031,359c-.32-.06-.63-.14-1-.22a8.93,8.93,0,0,1-.87-.27,6.33,6.33,0,0,1-.71-.3l.12-.1.09-.11a5.08,5.08,0,0,0,.92.39c.38.13.77.24,1.18.34A9.4,9.4,0,0,0,1031.91,358.88Zm-.62,1.95.25,2.13-2.62.31-.25-2.14.24,0,.21,1.88,2.15-.25-.22-1.88Zm.28-1.68c0,.05-.14.14-.27.25s-.27.24-.41.38l-.42.36-.29.24-.23-.18.32-.24c.14-.1.29-.21.44-.34a5.44,5.44,0,0,0,.43-.36l.29-.26Zm-.53,4.62.21,1.85-.24,0-.21-1.85Zm4.08-2.52,0,.27-3.85.45,0-.27Zm-3.22-3.51.28,2.42-.24,0-.28-2.42Zm2.19-.22.09.22a5,5,0,0,1-.57.28l-.59.25-.52.17-.1-.24c.15,0,.33-.09.52-.16l.6-.25Zm.34,2.27-.1.29-.64-.14-.66-.16c-.21-.06-.4-.11-.55-.17l.07-.22a4.25,4.25,0,0,0,.58.16l.68.13Zm-1.35,3.75.22,1.84-.25,0-.22-1.84Zm.11-3.38.33,2.85-.25,0-.33-2.85Zm1.88,3.15.21,1.84-.24,0-.21-1.85Z" transform="translate(0 -0.91)"/><path class="cls-4" d="M963.41,245.86A115.74,115.74,0,0,1,1040.46,448" transform="translate(0 -0.91)"/><path class="cls-37" d="M990.26,280.24a103.75,103.75,0,0,0-143.1,96l19.2-.26A84.3,84.3,0,0,1,982.61,298Z" transform="translate(0 -0.91)"/><path class="cls-4" d="M1056.63,438.16a128.53,128.53,0,0,1-98.09,45.32" transform="translate(0 -0.91)"/><circle class="cls-37" cx="957.17" cy="369.59" r="15.85"/><line class="cls-38" x1="3.01" y1="789.5" x2="1235.7" y2="789.5"/></g></g></svg>